<svg width="33" height="32" viewBox="0 0 33 32" fill="none" xmlns="http://www.w3.org/2000/svg">
<path opacity="0.3" fill-rule="evenodd" clip-rule="evenodd" d="M7.30463 9.33333C7.30463 12.2789 9.69244 14.6667 12.638 14.6667C15.5835 14.6667 17.9713 12.2789 17.9713 9.33333C17.9713 6.38781 15.5835 4 12.638 4C9.69244 4 7.30463 6.38781 7.30463 9.33333ZM20.638 14.6667C20.638 16.8758 22.4288 18.6667 24.638 18.6667C26.8471 18.6667 28.638 16.8758 28.638 14.6667C28.638 12.4575 26.8471 10.6667 24.638 10.6667C22.4288 10.6667 20.638 12.4575 20.638 14.6667Z" fill="#663259"/>
<path fill-rule="evenodd" clip-rule="evenodd" d="M12.6157 17.3333C6.32049 17.3333 1.15562 20.5687 0.638808 26.9322C0.610657 27.2789 1.27356 28 1.60794 28H23.6335C24.6352 28 24.6507 27.1939 24.6352 26.9333C24.2445 20.3909 18.9996 17.3333 12.6157 17.3333ZM31.9125 28L26.7713 28C26.7713 24.9987 25.7796 22.2291 24.1062 20.0008C28.6482 20.0504 32.3568 22.3468 32.6359 27.2C32.6472 27.3954 32.6359 28 31.9125 28Z" fill="#663259"/>
</svg>
