<svg width="32" height="32" viewBox="0 0 32 32" fill="none" xmlns="http://www.w3.org/2000/svg">
<path opacity="0.3" fill-rule="evenodd" clip-rule="evenodd" d="M6.66669 9.33333C6.66669 12.2789 9.0545 14.6667 12 14.6667C14.9455 14.6667 17.3334 12.2789 17.3334 9.33333C17.3334 6.38781 14.9455 4 12 4C9.0545 4 6.66669 6.38781 6.66669 9.33333ZM20 14.6667C20 16.8758 21.7909 18.6667 24 18.6667C26.2092 18.6667 28 16.8758 28 14.6667C28 12.4575 26.2092 10.6667 24 10.6667C21.7909 10.6667 20 12.4575 20 14.6667Z" fill="#0BB783"/>
<path fill-rule="evenodd" clip-rule="evenodd" d="M11.9778 17.3333C5.68255 17.3333 0.517678 20.5687 0.000868912 26.9322C-0.0272823 27.2789 0.635616 28 0.970003 28H22.9956C23.9972 28 24.0128 27.1939 23.9972 26.9333C23.6065 20.3909 18.3616 17.3333 11.9778 17.3333ZM31.2746 28L26.1333 28C26.1333 24.9987 25.1417 22.2291 23.4682 20.0008C28.0103 20.0504 31.7189 22.3468 31.998 27.2C32.0092 27.3954 31.998 28 31.2746 28Z" fill="#0BB783"/>
</svg>
