<svg width="262" height="245" viewBox="0 0 262 245" fill="none" xmlns="http://www.w3.org/2000/svg">
<path d="M71.9013 220.033C71.6153 220.031 71.383 219.764 71.3851 219.439C71.3872 219.114 71.6229 218.849 71.9089 218.851C121.602 218.821 149.463 218.804 199.156 218.775C199.442 218.777 199.674 219.044 199.672 219.369C199.67 219.694 199.434 219.959 199.148 219.957L71.9013 220.033Z" fill="black"/>
<path d="M50.6659 210.782L65.7213 210.618L80.6986 210.453L89.1494 210.351C89.6434 210.354 89.6484 209.574 89.1544 209.571L74.0991 209.735L59.1217 209.9L50.6709 210.002C50.1769 209.999 50.1719 210.779 50.6659 210.782Z" fill="black"/>
<path d="M76.2571 201.533L84.3676 201.793L92.5041 202.053L97.0792 202.212C97.5732 202.215 97.5782 201.435 97.0842 201.432L88.9737 201.172L80.8372 200.912L76.2621 200.753C75.7681 200.75 75.7631 201.53 76.2571 201.533Z" fill="black"/>
<path d="M108.41 109.254C108.775 100.858 113.116 96.9598 116.255 85.8516C119.394 74.7433 122.729 69.5645 126.784 65.6642C131.833 60.8083 134.094 60.9787 134.094 60.9787L136.122 56.9616L147.358 60.3352L146.724 66.0513C148.059 68.7639 151.131 72.1375 145.46 80.7336C141.391 86.9218 141.364 95.2677 135.928 107.817C130.491 120.367 124.045 124.2 124.045 124.2" fill="#FFAD00"/>
<path d="M124.069 124.564C123.939 124.563 123.81 124.485 123.732 124.38C123.629 124.197 123.683 123.964 123.866 123.835C123.944 123.783 130.287 119.898 135.591 107.633C138.177 101.644 139.509 96.6601 140.707 92.2996C141.985 87.5237 142.997 83.7601 145.15 80.4977C150.086 72.989 148.236 69.5971 146.874 67.1184C146.694 66.8053 146.54 66.4923 146.385 66.2053C146.36 66.1271 146.334 66.075 146.335 65.997L146.915 60.6185L136.301 57.4308L134.431 61.163C134.352 61.2925 134.222 61.3957 134.066 61.3687C134.014 61.3684 131.778 61.3801 127.043 65.952C123.642 69.2324 120.024 73.9155 116.619 85.958C115.262 90.7335 113.706 94.1816 112.309 97.2148C110.437 101.311 108.986 104.552 108.774 109.282C108.773 109.49 108.59 109.671 108.382 109.67C108.174 109.669 107.993 109.486 107.994 109.252C108.207 104.365 109.789 100.917 111.609 96.8983C112.98 93.891 114.536 90.4688 115.866 85.7452C119.324 73.521 123.021 68.7345 126.5 65.4026C130.686 61.3731 133.082 60.7124 133.837 60.6132L135.759 56.8034C135.838 56.6219 136.047 56.5452 136.228 56.5984L147.439 59.9719C147.621 60.025 147.724 60.2077 147.723 60.3897L147.115 65.9759C147.243 66.2367 147.372 66.4976 147.526 66.7586C148.991 69.4199 150.97 73.0726 145.771 80.9437C143.697 84.1025 142.686 87.8141 141.434 92.5123C140.236 96.9247 138.904 101.908 136.291 107.95C130.881 120.474 124.512 124.359 124.251 124.513C124.199 124.539 124.121 124.565 124.069 124.564Z" fill="black"/>
<path d="M109.719 103.724C109.188 105.489 108.89 107.333 108.8 109.179L114.021 114.152L125.643 122.26C127.029 121.047 129.123 118.876 131.355 115.432C122.085 105.259 112.734 103.874 109.719 103.724Z" fill="#E89D00"/>
<path d="M146.912 77.2585C144.615 70.5617 141.919 65.2404 139.49 66.863C133.746 70.7265 132.075 88.1361 133.358 90.7444C134.257 92.5701 137.809 94.1528 139.858 94.9459C141.481 89.0801 142.472 84.4843 144.94 80.704C145.701 79.6168 146.333 78.4508 146.912 77.2585Z" fill="#E89D00"/>
<path d="M105.92 104.272C105.92 104.272 118.571 110.202 125.482 115.03C139.124 124.556 143.918 135.22 150.482 153.801C152.295 158.96 154.942 163.813 158.294 168.125L97.2104 185.806C97.2104 185.806 95.724 182.416 90.3014 156.121C86.5685 138.053 87.5115 116.557 93.8741 109.577C93.8481 109.577 106.139 110.799 105.92 104.272Z" fill="#FFAD00"/>
<path d="M105.919 104.272C105.919 104.272 118.57 110.202 125.481 115.031C139.123 124.556 143.917 135.22 150.481 153.801C152.294 158.96 154.941 163.813 158.294 168.125L97.2098 185.806C97.2098 185.806 95.7233 182.416 90.3008 156.121C86.5678 138.053 87.5108 116.557 93.8734 109.577C93.8734 109.577 94.7049 109.66 95.9009 109.668C99.3588 109.69 106.097 109.109 105.919 104.272ZM105.924 103.492C105.768 103.491 105.612 103.542 105.482 103.619C105.247 103.773 105.115 104.033 105.139 104.293C105.212 105.203 104.868 106.085 104.24 106.757C102.381 108.669 98.2197 108.929 95.9057 108.914C94.7617 108.907 93.9562 108.824 93.9562 108.824L93.8522 108.823C93.6182 108.821 93.4096 108.924 93.2786 109.079C90.1628 112.491 88.1164 119.447 87.5116 128.673C86.9368 137.275 87.6787 147.342 89.5196 156.298C94.8917 182.359 96.4286 185.983 96.4796 186.139C96.6078 186.426 96.8926 186.61 97.1786 186.612C97.2566 186.612 97.3346 186.613 97.4128 186.587L158.471 168.854C158.888 168.726 159.125 168.312 158.997 167.895C158.972 167.791 158.921 167.687 158.843 167.608C155.568 163.349 152.972 158.601 151.185 153.519C147.762 143.851 144.922 136.657 141.268 130.601C137.306 124.05 132.58 119.054 125.901 114.383C119.016 109.581 106.366 103.624 106.236 103.572C106.132 103.519 106.002 103.492 105.924 103.492Z" fill="black"/>
<path d="M163.882 156.148C163.882 156.148 156.295 135.013 163.243 125.905C170.191 116.797 221.011 110.465 221.011 110.465L228.95 133.552L201.188 144.634" fill="#5B0AB7"/>
<path d="M163.88 156.539C163.724 156.538 163.569 156.433 163.518 156.276C163.211 155.416 155.932 134.829 162.933 125.67C169.933 116.51 218.905 110.348 220.987 110.102C221.169 110.077 221.35 110.182 221.401 110.364L229.34 133.451C229.417 133.66 229.312 133.867 229.129 133.944L201.368 145.025C201.159 145.102 200.952 144.997 200.849 144.814C200.746 144.631 200.878 144.398 201.061 144.295L228.457 133.342L220.748 110.906C216.454 111.451 170.03 117.629 163.554 126.142C156.815 134.991 164.196 155.813 164.247 156.021C164.324 156.229 164.219 156.437 164.01 156.513C163.958 156.539 163.932 156.539 163.88 156.539Z" fill="black"/>
<path d="M222.365 110.11C224.424 105.183 227.262 100.625 230.797 96.6178C231.504 95.8163 232.727 95.7461 233.528 96.4532C233.787 96.6888 233.967 96.976 234.069 97.3147L244.064 128.215C244.064 128.215 236.935 133.11 230.074 132.624L222.365 110.11Z" fill="#7800FF"/>
<path d="M230.955 133.071C230.643 133.07 230.357 133.068 230.045 133.04C229.889 133.039 229.759 132.934 229.708 132.778L222 110.238C221.974 110.16 221.975 110.056 222.002 109.978C224.087 104.999 226.951 100.415 230.513 96.356C231.377 95.3995 232.859 95.3309 233.816 96.195C234.1 96.4568 234.332 96.7963 234.459 97.1871L244.455 128.087C244.506 128.244 244.453 128.425 244.296 128.528C244.009 128.735 237.585 133.114 230.955 133.071ZM230.362 132.288C236.236 132.585 242.343 128.906 243.597 128.082L233.704 97.4423C233.423 96.6345 232.542 96.1869 231.734 96.4678C231.473 96.5441 231.264 96.6988 231.081 96.8796C227.624 100.836 224.814 105.29 222.781 110.113L230.362 132.288Z" fill="black"/>
<path d="M147.338 145.227L88.3872 142.329C88.4117 142.563 88.4104 142.771 88.4349 143.005L89.7143 146.238L147.849 146.582C147.67 146.113 147.491 145.67 147.338 145.227Z" fill="#E89D00"/>
<path d="M215.077 111.312C215.077 111.312 221.118 126.353 223.373 135.623L230.541 132.757L222.598 110.242L215.077 111.312Z" fill="white"/>
<path d="M223.396 136.013C223.344 136.013 223.266 135.986 223.214 135.96C223.111 135.907 223.033 135.803 223.008 135.699C220.778 126.584 214.789 111.596 214.712 111.439C214.636 111.231 214.741 111.024 214.95 110.947C214.976 110.947 215.002 110.921 215.028 110.921L222.548 109.877C222.731 109.853 222.912 109.958 222.963 110.14L230.906 132.655C230.982 132.864 230.877 133.071 230.694 133.148L223.526 136.014C223.5 136.014 223.448 136.014 223.396 136.013ZM215.647 111.627C216.671 114.182 221.583 126.798 223.688 135.105L230.074 132.546L222.361 110.682L215.647 111.627Z" fill="black"/>
<path d="M137.029 147.215C137.029 147.215 165.788 114.195 179.144 119.533C192.5 124.87 200.583 137.714 202.265 147.058C203.948 156.403 207.069 168.357 207.069 168.357L187.501 178.997C187.501 178.997 173.071 158.521 171.924 155.029C170.776 151.538 137.029 147.215 137.029 147.215Z" fill="#7800FF"/>
<path d="M187.499 179.387C187.369 179.387 187.265 179.334 187.188 179.229C186.595 178.394 172.707 158.675 171.559 155.157C171.355 154.558 169.259 152.907 153.988 150.209C145.521 148.725 137.078 147.632 136.974 147.631C136.766 147.604 136.612 147.421 136.613 147.213C136.613 147.135 136.666 147.057 136.718 147.005C141.746 141.369 147.11 136.073 152.81 131.117C164.679 120.949 173.596 116.95 179.276 119.196C185.449 121.653 191.011 125.953 195.37 131.571C199.083 136.378 201.726 141.985 202.63 147.009C204.287 156.224 207.409 168.152 207.434 168.282C207.485 168.465 207.406 168.646 207.249 168.723L187.681 179.363C187.629 179.362 187.577 179.388 187.499 179.387ZM137.811 146.934C140.045 147.234 147.085 148.189 154.123 149.43C171.524 152.479 172.085 154.251 172.289 154.902C173.334 158.081 185.856 175.997 187.609 178.504L206.603 168.173C206.121 166.272 203.381 155.568 201.849 147.16C200.09 137.451 191.668 124.995 178.96 119.922C166.978 115.087 141.634 142.642 137.811 146.934Z" fill="black"/>
<path d="M138.177 146.521L178.944 146.754L139.722 144.814C139.067 145.538 138.544 146.107 138.177 146.521Z" fill="#59298F"/>
<path d="M207.508 168.855C207.508 168.855 215.538 169.556 222.946 173.971C223.853 174.523 224.157 175.721 223.605 176.627C223.421 176.912 223.186 177.171 222.873 177.325L194.432 193.004C194.432 193.004 187.813 187.163 186.973 180.32L207.508 168.855Z" fill="#7800FF"/>
<path d="M194.456 193.42C194.352 193.419 194.274 193.393 194.196 193.314C193.912 193.078 187.449 187.291 186.609 180.37C186.584 180.214 186.663 180.058 186.819 179.981L207.329 168.489C207.407 168.464 207.485 168.438 207.563 168.439C207.641 168.439 215.774 169.219 223.157 173.608C224.27 174.292 224.599 175.724 223.942 176.812C223.732 177.148 223.444 177.432 223.079 177.638L194.638 193.317C194.586 193.395 194.534 193.394 194.456 193.42ZM187.44 180.531C188.26 186.386 193.428 191.515 194.513 192.536L222.719 176.986C223.476 176.549 223.742 175.614 223.305 174.857C223.176 174.623 222.995 174.439 222.762 174.308C216.002 170.287 208.623 169.356 207.61 169.245L187.44 180.531Z" fill="black"/>
<path d="M204.979 161.922C204.979 161.922 191.852 169.431 183.195 173.432L187.232 180.452L207.455 169.14L204.979 161.922Z" fill="white"/>
<path d="M187.203 180.842C187.073 180.841 186.944 180.762 186.866 180.631L182.829 173.612C182.726 173.429 182.78 173.195 182.962 173.092C182.962 173.092 182.988 173.093 182.989 173.067C191.542 169.143 204.616 161.66 204.746 161.583C204.929 161.48 205.162 161.534 205.291 161.716C205.291 161.742 205.317 161.769 205.317 161.795L207.793 168.987C207.844 169.169 207.765 169.35 207.608 169.453L187.386 180.765C187.333 180.816 187.281 180.816 187.203 180.842ZM183.713 173.591L187.339 179.906L206.935 168.929L204.74 162.493C202.496 163.779 191.432 170.026 183.713 173.591Z" fill="black"/>
<path d="M82.9541 93.2055C82.9541 93.2055 76.8314 99.2506 73.2458 90.6996C71.3504 86.2154 62.6 76.2015 55.9999 79.6435C49.3998 83.0855 45.2214 77.8067 40.2136 76.1888C34.4533 74.3321 24.6293 81.8356 34.6434 93.4697C58.4139 121.078 89.8601 102.948 89.8601 102.948L87.4284 92.844L82.9541 93.2055Z" fill="#7800FF"/>
<path d="M38.395 75.9434C39.019 75.9473 39.6165 76.0291 40.2133 76.215C44.0016 77.4351 47.3343 80.7844 51.5982 80.8116C53.1324 80.7954 54.6428 80.415 55.9996 79.6696C56.9127 79.1814 57.9282 78.9539 58.9682 78.9605C65.0001 78.999 71.6321 86.8674 73.2455 90.7257C74.7311 94.2453 76.6226 95.2714 78.3646 95.2825C80.8345 95.2982 82.9539 93.2057 82.9539 93.2057L87.454 92.8963L89.8856 103C89.8856 103 79.6036 108.941 66.3438 108.856C56.412 108.793 44.8376 105.365 34.6427 93.5478C25.6355 83.0382 32.7011 75.9071 38.395 75.9434ZM38.4 75.1634C35.072 75.1422 31.7565 77.2531 30.359 80.3122C29.3044 82.5936 28.3896 87.4238 34.0678 94.0122C38.8425 99.5547 44.3023 103.698 50.2919 106.284C55.374 108.474 60.827 109.601 66.339 109.61C79.6508 109.695 89.8538 103.91 90.2975 103.653C90.5846 103.472 90.7428 103.135 90.6669 102.797L88.2353 92.6933C88.1594 92.3548 87.8491 92.0928 87.4851 92.0905L87.4331 92.0902L82.9329 92.4255C82.7507 92.4503 82.5682 92.5272 82.4374 92.6564C82.4112 92.6822 80.5015 94.5161 78.3955 94.5026C76.6016 94.4912 75.1284 93.1038 74.0015 90.4186C72.2599 86.2734 65.395 78.2215 58.9992 78.1807C57.8292 78.1732 56.6834 78.4519 55.6661 78.9655C54.4396 79.6597 53.0593 80.0149 51.6292 80.0318C49.1853 80.0162 47.0868 78.8328 44.8328 77.5704C43.4338 76.7815 41.9829 75.9662 40.4779 75.4886C39.8034 75.2503 39.1021 75.1418 38.4 75.1634Z" fill="black"/>
<path d="M95.0231 108.726C95.0231 108.726 95.2821 108.884 95.7482 109.173C98.3903 110.75 104.687 114.144 108.364 112.347C112.642 110.243 107.617 107.143 107.617 107.143C113.5 110.17 110.585 106.563 110.585 106.563L106.597 104.146L95.0231 108.726Z" fill="white"/>
<path d="M105.811 113.242C102.327 113.219 98.0766 111.034 95.5382 109.51C95.0719 109.247 94.8131 109.063 94.8131 109.063C94.6317 108.958 94.5814 108.698 94.6866 108.517C94.7391 108.439 94.7914 108.387 94.8695 108.362L106.417 103.755C106.521 103.704 106.651 103.731 106.755 103.783L110.744 106.201C110.769 106.227 110.821 106.253 110.847 106.28C111.208 106.724 111.981 107.821 111.509 108.442C111.274 108.726 110.883 108.88 109.715 108.508C110.18 109.031 110.435 109.709 110.431 110.411C110.399 111.321 109.744 112.097 108.492 112.713C107.684 113.072 106.747 113.274 105.811 113.242ZM95.9067 108.81L95.9585 108.837C98.4709 110.361 104.716 113.703 108.185 111.983C109.15 111.495 109.647 110.952 109.677 110.354C109.737 109.185 108.055 107.874 107.382 107.454C107.2 107.322 107.15 107.088 107.281 106.907C107.386 106.752 107.594 106.701 107.776 106.78C110.082 107.965 110.732 107.969 110.889 107.944C110.761 107.527 110.556 107.162 110.298 106.822L106.542 104.536L95.9067 108.81Z" fill="black"/>
<path d="M81.6002 89.3751C84.8884 89.396 87.571 86.7474 87.592 83.4591C87.6129 80.1709 84.9643 77.4883 81.676 77.4673C78.3878 77.4464 75.7052 80.095 75.6842 83.3833C75.6633 86.6715 78.3119 89.3541 81.6002 89.3751Z" fill="#7800FF"/>
<path d="M81.6762 77.4409C84.9781 77.462 87.6392 80.131 87.6441 83.4331C87.6231 86.735 84.9541 89.3961 81.652 89.401C78.35 89.38 75.689 86.711 75.684 83.4089C75.7009 80.7569 77.458 78.4021 80.0365 77.6905C80.5575 77.5378 81.13 77.4635 81.6762 77.4409ZM81.6811 76.661C77.9632 76.6373 74.928 79.634 74.9044 83.3519C74.8807 87.0698 77.8774 90.105 81.5953 90.1287C85.3392 90.1525 88.3746 87.1298 88.3724 83.3857C88.3764 82.7617 88.3024 82.1373 88.1242 81.5381C87.3103 78.6989 84.6969 76.7062 81.6811 76.661Z" fill="black"/>
<path d="M103.035 116.214C97.9662 107.914 85.3659 106.352 75.0925 98.694C64.8191 91.0363 58.4915 88.448 52.5185 87.3179C45.0395 85.8922 42.8568 89.7524 42.8568 89.7524L38.7249 89.414L34.3522 98.3044L38.7366 99.8143C39.5497 102.784 39.9233 105.36 50.9085 107.406C59.6604 109.022 61.3348 119.641 74.4681 127.317C87.6015 134.992 95.5068 134.809 95.5068 134.809" fill="#FFAD00"/>
<path d="M95.4266 135.198C94.3866 135.192 86.7185 134.883 74.2843 127.653C67.8083 123.868 63.9895 119.268 60.9447 115.608C57.7197 111.687 55.1653 108.603 50.8282 107.821C39.9208 105.802 39.2354 103.197 38.4223 100.228L38.3968 100.15L34.22 98.6934C34.0125 98.6141 33.9098 98.4054 33.9891 98.1979C33.9891 98.1979 33.9893 98.1719 34.0153 98.1721L38.3882 89.2558C38.4672 89.1003 38.6237 89.0233 38.7795 89.0502L42.6776 89.3611C43.2809 88.5329 45.8992 85.6635 52.5992 86.9543C57.7409 87.949 64.0459 90.0173 75.3286 98.4093C79.5467 101.556 84.0837 103.613 88.4648 105.643C94.5571 108.438 100.338 111.075 103.375 116.06C103.478 116.243 103.424 116.477 103.241 116.606C103.059 116.708 102.825 116.655 102.696 116.472C99.7885 111.695 94.3702 109.217 88.1222 106.369C83.689 104.339 79.1002 102.255 74.8305 99.0562C63.6512 90.7428 57.4501 88.7012 52.4122 87.7331C45.3486 86.3881 43.2466 89.8327 43.1678 89.9622C43.089 90.0917 42.9585 90.1689 42.8025 90.1679L38.9564 89.8574L34.8994 98.1517L38.8687 99.529C38.9986 99.5559 39.1019 99.6605 39.1271 99.7907L39.2034 100.051C39.94 102.786 40.5749 105.156 51.0148 107.095C55.6114 107.956 58.2431 111.145 61.5715 115.17C64.7451 119.012 68.3317 123.325 74.7041 127.058C87.5786 134.55 95.4571 134.496 95.5351 134.497C95.7431 134.498 95.9239 134.681 95.9226 134.889C95.9213 135.097 95.7381 135.278 95.5301 135.277L95.4266 135.198Z" fill="black"/>
<path d="M39.3113 99.4273C39.9661 98.6775 44.1269 94.4919 42.8544 90.1677C42.8019 90.2454 42.5169 90.0875 42.5169 90.0875L38.904 89.9085L35.1324 98.3087L39.3113 99.4273Z" fill="#E89D00"/>
<path d="M30.9186 86.3217C35.6558 85.5199 35.8449 84.403 39.0632 85.3076C41.1137 85.8666 41.505 89.7432 40.0767 93.5562C38.6484 97.3692 35.9022 99.8997 33.9049 99.159C31.9075 98.4182 30.4579 97.421 28.1754 96.5484" fill="#FFCDB2"/>
<path d="M34.6296 99.6836C34.3436 99.6818 34.058 99.628 33.7726 99.5221C32.8648 99.1783 31.9575 98.7566 31.0763 98.3089C30.0916 97.7826 29.0805 97.3342 28.043 96.9376C27.8353 96.8842 27.7067 96.6754 27.786 96.4679C27.8393 96.2603 28.0481 96.1316 28.2556 96.2109C28.2816 96.2111 28.2816 96.2111 28.3075 96.2372C29.3709 96.634 30.4079 97.1086 31.4186 97.6351C32.2738 98.0826 33.1293 98.478 34.0371 98.8218C34.8413 99.1129 35.8836 98.7556 36.9297 97.8002C38.0541 96.7934 39.026 95.2395 39.6874 93.4497C40.6398 90.8817 40.7611 88.1785 40.0165 86.6917C39.8115 86.2224 39.4238 85.8559 38.9308 85.6967C36.9842 85.1643 36.2289 85.3675 34.7179 85.8259C33.4935 86.2081 32.2175 86.512 30.9422 86.7119C30.734 86.7365 30.5269 86.6052 30.4762 86.3969C30.4515 86.1887 30.5829 85.9816 30.7912 85.9309C32.0405 85.7308 33.2644 85.4266 34.4629 85.0443C36.052 84.5604 36.9377 84.306 39.0918 84.9177C39.7925 85.1302 40.3611 85.6539 40.669 86.3058C41.5422 88.0014 41.4198 90.8867 40.3879 93.6882C39.6737 95.6077 38.6233 97.239 37.4202 98.3494C36.5044 99.2535 35.5396 99.6894 34.6296 99.6836Z" fill="black"/>
<path d="M106.427 85.8151C106.427 85.8151 107.06 80.3591 103.222 78.8006C99.3838 77.2421 98.91 78.1491 96.94 77.2005C94.97 76.2519 90.9338 77.2142 89.147 80.1669C89.147 80.1669 84.0476 80.6804 81.9471 83.8911C79.8466 87.1018 80.0927 89.2874 81.2704 92.155C82.4482 95.0225 82.5418 96.6612 83.3088 98.6941C84.0759 100.727 87.008 105.738 95.6547 103.453C104.301 101.168 106.427 85.8151 106.427 85.8151Z" fill="#7800FF"/>
<path d="M95.2263 76.8511C95.8245 76.8289 96.4216 76.9627 96.9661 77.2002C98.9101 78.1486 99.4357 77.2679 103.248 78.8002C107.06 80.3326 106.453 85.8148 106.453 85.8148C106.453 85.8148 104.353 101.22 95.7066 103.479C94.3522 103.86 92.947 104.033 91.5429 104.05C86.083 104.015 84.0003 100.362 83.3869 98.6941C82.6198 96.6611 82.5264 94.9965 81.3485 92.1549C80.1706 89.3134 79.9247 87.1018 82.0252 83.8911C84.1257 80.6804 89.225 80.1669 89.225 80.1669C90.5394 77.9132 93.1723 76.838 95.2263 76.8511ZM95.2573 76.0713C93.1253 76.0577 90.3366 77.1059 88.7357 79.4358C87.4344 79.6355 83.269 80.467 81.3258 83.4706C79.0415 86.9661 79.3379 89.4121 80.5925 92.4621C81.1304 93.7396 81.5379 95.0682 81.8673 96.4223C82.0697 97.3076 82.3242 98.1673 82.6309 99.0012C83.1423 100.357 85.2979 104.816 91.5118 104.856C92.9939 104.839 94.4512 104.641 95.8837 104.26C99.6601 103.27 102.829 99.754 105.023 94.0998C106.027 91.4542 106.773 88.7289 107.207 85.9496L107.207 85.9236C107.234 85.6638 107.843 79.8695 103.539 78.1001C101.308 77.2018 100.165 77.0906 99.2296 76.9806C98.5797 76.9504 97.9307 76.7903 97.3346 76.5005C96.6604 76.2102 95.9594 76.0497 95.2573 76.0713Z" fill="black"/>
<path d="M49.4667 101.104C50.1703 101.109 50.7443 100.542 50.7488 99.8382C50.7533 99.1346 50.1866 98.5606 49.483 98.5562C48.7794 98.5517 48.2053 99.1184 48.2009 99.822C48.1964 100.526 48.7631 101.1 49.4667 101.104Z" fill="#FFC140"/>
<path d="M102.692 100.741L107.284 106.387C107.284 106.387 108.271 110.579 96.3294 107.721C96.3294 107.721 96.6332 104.941 94.0718 98.8663C94.0718 98.8663 91.5393 100.514 89.9671 98.3461C88.3948 96.1781 89.5767 94.3136 90.9832 93.9325C90.9832 93.9325 96.8664 92.826 93.0607 82.0895C93.0607 82.0895 98.249 79.8605 102.858 82.88C107.467 85.8994 111.178 91.0452 109.539 95.2468C107.9 99.4484 102.692 100.741 102.692 100.741Z" fill="#FFCDB2"/>
<path d="M97.4599 81.2595C99.384 81.2457 101.252 81.8037 102.884 82.8541C107.493 85.8735 111.204 91.0192 109.565 95.2209C107.926 99.4225 102.692 100.741 102.692 100.741L107.284 106.387C107.284 106.387 107.841 108.756 103.057 108.726C101.471 108.716 99.2887 108.442 96.3293 107.721C96.3293 107.721 96.633 104.941 94.0716 98.8662C93.4713 99.2264 92.7678 99.4559 92.0657 99.4775C91.2337 99.4722 90.4564 99.0512 89.9929 98.3462C88.4468 96.1523 89.6026 94.3137 91.009 93.9326C91.009 93.9326 96.8922 92.8261 93.0865 82.0896C94.4681 81.5264 95.9519 81.2499 97.4599 81.2595ZM97.4649 80.4795C95.8529 80.4692 94.2651 80.7451 92.7793 81.3337C92.4143 81.4873 92.2035 81.928 92.357 82.319C94.1702 87.4786 93.6331 90.1533 92.8705 91.5004C92.4494 92.3038 91.7178 92.8711 90.858 93.1516L90.7798 93.1771C89.7898 93.4828 89.0051 94.2319 88.6609 95.1917C88.2637 96.3332 88.5155 97.6088 89.3661 98.7842C89.9583 99.698 90.9948 100.251 92.0869 100.232C92.6329 100.235 93.1797 100.109 93.701 99.9039C95.7737 105.143 95.5759 107.612 95.5758 107.638C95.5473 108.028 95.805 108.393 96.1685 108.474C98.9463 109.141 101.258 109.494 103.078 109.506C105.288 109.52 106.825 109.036 107.585 108.079C108.004 107.561 108.191 106.886 108.065 106.21C108.04 106.105 107.989 105.975 107.911 105.897L104.041 101.14C105.788 100.475 109.048 98.8317 110.317 95.5117C112.168 90.7134 107.991 85.2527 103.33 82.2069C101.569 81.0777 99.545 80.4668 97.4649 80.4795Z" fill="black"/>
<path d="M100.659 101.509C100.269 101.506 99.9055 101.478 99.5157 101.45C99.3079 101.422 99.1532 101.213 99.1805 101.005C99.2078 100.798 99.4168 100.643 99.6247 100.67C99.6507 100.67 101.729 100.918 103.189 100.355C103.397 100.278 103.604 100.41 103.681 100.618C103.732 100.8 103.653 101.008 103.47 101.085C102.584 101.365 101.621 101.515 100.659 101.509Z" fill="black"/>
<path d="M93.0364 98.2097C93.0104 98.2095 92.9844 98.2093 92.9584 98.2092C91.7902 97.9157 91.0654 97.4171 90.836 96.6876C90.4786 95.6453 91.3171 94.6367 91.3434 94.5848C91.4744 94.4297 91.7346 94.4053 91.8897 94.5363C92.0449 94.6673 92.0693 94.9275 91.9383 95.0826C91.9381 95.1086 91.3616 95.807 91.5657 96.4323C91.7442 96.9794 92.5223 97.2704 93.1453 97.4303C93.353 97.4837 93.4817 97.6925 93.4284 97.9001C93.375 98.1078 93.2184 98.2108 93.0364 98.2097Z" fill="black"/>
<path d="M98.9284 87.5611C97.0668 89.9933 93.1303 91.6323 93.3042 92.9074C93.4781 94.1825 94.8254 94.9191 96.2865 94.1224C97.7476 93.3257 98.9506 92.2414 101.28 89.8902C103.609 87.5389 105.731 85.0564 104.307 83.9813C102.884 82.9062 101.681 83.9646 98.9284 87.5611Z" fill="#FFB49F"/>
<path d="M95.095 93.4127L95.069 93.4125C94.8611 93.3852 94.7063 93.2022 94.7076 92.9942C94.9891 89.6159 98.1099 89.5058 98.1359 89.506C98.3439 89.5073 98.5248 89.6904 98.5234 89.8984C98.5221 90.1064 98.3389 90.2873 98.131 90.2859C98.027 90.2853 95.6863 90.3744 95.4613 93.051C95.4599 93.259 95.277 93.4138 95.095 93.4127Z" fill="black"/>
<path d="M97.9303 85.0071C97.7223 85.0057 97.5413 84.8486 97.5166 84.6404C97.5179 84.4324 97.6751 84.2514 97.8833 84.2268C98.4817 84.1526 99.0552 83.9222 99.5513 83.5874C99.7342 83.4586 99.968 83.4861 100.097 83.6689C100.226 83.8257 100.198 84.0855 100.015 84.2144C99.4145 84.6525 98.7109 84.908 97.9563 85.0072L97.9303 85.0071Z" fill="black"/>
<path d="M100.091 96.8503C99.5971 96.8471 99.1037 96.74 98.6367 96.581C98.4292 96.5017 98.3527 96.2672 98.4321 96.0597C98.5112 95.8782 98.6939 95.7753 98.9015 95.8287C101.237 96.6236 102.209 94.9917 102.261 94.9141C102.367 94.7327 102.601 94.6562 102.782 94.7614C102.964 94.8665 103.04 95.101 102.935 95.2824C102.331 96.2665 101.235 96.8576 100.091 96.8503Z" fill="black"/>
<path d="M87.3649 94.6373C87.2349 94.6365 87.1569 94.636 87.1309 94.6358C86.9229 94.6345 86.7421 94.4513 86.7694 94.2435C86.7708 94.0355 86.9539 93.8547 87.1617 93.882C87.1877 93.8821 90.6968 94.0345 92.4494 92.3816C92.6064 92.2266 92.8404 92.2281 92.9954 92.3851C93.1504 92.5421 93.1489 92.7761 92.9919 92.9311C92.9919 92.9311 92.9919 92.9311 92.9657 92.9569C91.2657 94.5321 88.2489 94.6429 87.3649 94.6373Z" fill="black"/>
<path d="M90.079 93.043C89.949 93.0422 89.8193 92.9894 89.7422 92.8589C89.6133 92.676 89.6668 92.4424 89.8496 92.3135C94.1053 89.5586 91.7958 84.7598 91.6931 84.5511C91.5903 84.3685 91.6698 84.135 91.8784 84.0323C92.0611 83.9295 92.2946 84.0089 92.3973 84.2176C92.4229 84.2698 95.1176 89.8251 90.2875 92.9663C90.235 93.044 90.157 93.0435 90.079 93.043Z" fill="white"/>
<path d="M73.3384 84.278C73.2084 84.2771 73.0789 84.1983 73.0017 84.0678C72.282 82.7632 72.1083 81.4621 72.4539 80.2682C73.0915 78.1402 75.1527 77.0093 75.2311 76.9578C75.4137 76.855 75.6472 76.9345 75.7499 77.1432C75.8527 77.3258 75.7732 77.5593 75.5906 77.6622C75.5646 77.662 73.712 78.6902 73.1804 80.5069C72.888 81.519 73.0372 82.586 73.654 83.708C73.7569 83.8906 73.6774 84.1241 73.4947 84.2269C73.4685 84.2528 73.3904 84.2783 73.3384 84.278Z" fill="black"/>
<path d="M103.091 91.228C103.013 91.2275 102.961 91.2012 102.909 91.1748L98.6086 88.7034C98.4273 88.5983 98.3508 88.3638 98.4559 88.1824C98.5611 88.0011 98.7956 87.9246 98.9769 88.0297L103.277 90.5012C103.459 90.6063 103.535 90.8408 103.43 91.0222C103.351 91.1517 103.221 91.2288 103.091 91.228Z" fill="black"/>
<path d="M152.223 55.9203C156.94 54.2343 161.373 52.1825 160.839 54.3112C160.279 56.5437 158.107 58.7659 151.965 59.6887C146.109 60.5615 145.519 59.3357 145.519 59.3357" fill="#FFCDB2"/>
<path d="M148.269 60.3933C145.851 60.3779 145.309 59.7505 145.18 59.5156C145.103 59.3071 145.183 59.0996 145.365 58.9968C145.548 58.92 145.756 58.9733 145.859 59.13C145.91 59.1823 146.841 60.0462 151.916 59.2986C156.938 58.5505 159.809 56.8528 160.476 54.231C160.529 54.0753 160.53 53.9193 160.478 53.893C160.013 53.474 157.12 54.5476 154.8 55.4169C154.018 55.7239 153.184 56.0306 152.377 56.3114C152.168 56.3621 151.961 56.2308 151.91 56.0485C151.859 55.8661 151.965 55.6588 152.121 55.5818C152.955 55.3011 153.763 54.9942 154.545 54.6872C158.246 53.3068 160.226 52.6174 161.002 53.2983C161.209 53.4817 161.389 53.7948 161.255 54.418C160.508 57.3773 157.428 59.2817 152.067 60.0795C150.791 60.2794 149.543 60.3754 148.269 60.3933Z" fill="black"/>
<path d="M140.709 51.1408C140.709 51.1408 149.3 45.3974 150.483 47.485C151.665 49.5726 145.799 52.1092 145.209 54.9395C144.619 57.7698 140.709 51.1408 140.709 51.1408Z" fill="#FFCDB2"/>
<path d="M144.656 56.0538C143.252 56.0448 141.039 52.4687 140.396 51.3465C140.293 51.1639 140.346 50.9302 140.529 50.8274C141.26 50.338 147.657 46.1407 150.02 46.7018C150.383 46.7821 150.668 46.9919 150.848 47.3051C151.619 48.688 150.102 50.0564 148.481 51.5281C147.252 52.6122 145.866 53.8514 145.624 55.0459C145.463 55.7989 145.098 56.0046 144.812 56.0548C144.76 56.0544 144.708 56.0541 144.656 56.0538ZM141.254 51.274C142.618 53.5187 144.192 55.3488 144.661 55.2738C144.713 55.2741 144.792 55.1446 144.845 54.885C145.14 53.4568 146.579 52.166 147.939 50.9266C149.325 49.6874 150.632 48.5257 150.143 47.6906C150.066 47.5601 149.937 47.4813 149.807 47.4544C148.171 47.08 143.343 49.9093 141.254 51.274Z" fill="black"/>
<path d="M136.695 56.7051C136.695 56.7051 137.882 50.0045 143.232 50.9746C148.582 51.9447 150.573 53.6994 153.268 50.9866C157.769 46.4391 161.228 46.2532 157.202 53.7937C153.176 61.3342 140.405 62.1628 140.405 62.1628" fill="#FFCDB2"/>
<path d="M140.402 62.5789C140.194 62.5776 140.013 62.4204 139.988 62.2123C139.964 62.0041 140.147 61.8233 140.355 61.7986C140.485 61.7994 152.971 60.891 156.839 53.6355C159.234 49.1267 158.459 48.3677 158.356 48.2891C157.942 47.9744 156.248 48.5097 153.5 51.2742C151.355 53.4446 149.616 52.9655 146.734 52.2191C145.696 51.9525 144.528 51.633 143.125 51.3901C141.957 51.1486 140.76 51.375 139.767 52.0447C137.626 53.5391 137.033 56.7853 137.033 56.8113C137.005 57.0192 136.796 57.1739 136.563 57.1464C136.329 57.1189 136.2 56.91 136.228 56.6762C136.255 56.5204 136.901 53.0664 139.303 51.3917C140.453 50.593 141.884 50.3161 143.234 50.6108C144.663 50.8799 145.857 51.1735 146.895 51.4661C149.698 52.212 151.1 52.5849 152.906 50.7244C153.9 49.7167 157.249 46.54 158.776 47.6677C159.759 48.402 159.329 50.5313 157.487 54.0036C153.486 61.6223 140.974 62.5306 140.402 62.5789Z" fill="black"/>
<path d="M93.1507 100.628C93.6963 100.632 94.1415 100.192 94.145 99.6468C94.1484 99.1012 93.7089 98.656 93.1633 98.6525C92.6176 98.6491 92.1725 99.0886 92.169 99.6342C92.1655 100.18 92.605 100.625 93.1507 100.628Z" fill="#FFAD00"/>
<path d="M93.1634 98.6786C93.7094 98.6821 94.1485 99.1269 94.1451 99.6728C94.1422 100.115 93.8539 100.477 93.4371 100.604C93.3589 100.63 93.255 100.629 93.177 100.629C92.631 100.625 92.2178 100.181 92.2213 99.6346C92.2239 99.2186 92.5124 98.8304 92.9292 98.7031C92.9812 98.7034 93.0854 98.6781 93.1634 98.6786ZM93.1683 97.8986C92.2064 97.8925 91.3954 98.6673 91.3891 99.6553C91.3828 100.643 92.1578 101.428 93.1458 101.435C93.3018 101.436 93.484 101.411 93.6403 101.36C94.5779 101.106 95.1042 100.121 94.85 99.2093C94.647 98.428 93.9483 97.9036 93.1683 97.8986Z" fill="black"/>
<path d="M77.6209 85.5013C77.4649 85.5003 77.3096 85.3953 77.2585 85.239C76.722 83.7535 76.7305 82.4276 77.3094 81.3392C78.2566 79.5772 80.3141 79.0443 80.4182 79.019C80.6265 78.9683 80.8337 79.0996 80.8844 79.308C80.935 79.5163 80.8037 79.7235 80.5954 79.7741C80.5694 79.774 78.7725 80.2305 77.9831 81.7075C77.5094 82.5885 77.5023 83.7065 77.9623 84.9575C78.039 85.1659 77.9337 85.3733 77.7252 85.4499C77.699 85.4758 77.6729 85.5016 77.6209 85.5013Z" fill="white"/>
<path d="M134.534 61.2934L134.508 61.2932C135.206 61.9737 139.883 66.4496 146.334 65.9707L146.464 65.9455L147.044 60.6711L136.456 57.4836L134.534 61.2934Z" fill="#E89D00"/>
<path d="M164.849 118.583C166.443 117.45 168.216 116.551 170.092 115.965C171.968 115.353 173.92 115.053 175.896 115.04C177.794 115.026 179.716 115.324 181.533 115.882C185.088 116.996 188.272 119.123 190.646 121.998C190.801 122.181 190.93 122.364 191.085 122.547C191.24 122.704 191.474 122.705 191.631 122.55C191.788 122.395 191.789 122.161 191.634 122.004C190.448 120.489 189.052 119.128 187.499 118.026C185.946 116.898 184.21 116.003 182.394 115.367C180.526 114.705 178.605 114.355 176.629 114.29C174.601 114.225 172.572 114.473 170.618 115.032C168.665 115.566 166.787 116.412 165.09 117.519C164.881 117.648 164.672 117.802 164.463 117.957C164.281 118.06 164.227 118.294 164.33 118.476C164.433 118.607 164.667 118.66 164.849 118.583Z" fill="black"/>
<path d="M221.418 103.708L225.485 97.9356L229.552 92.1374L231.834 88.8759C231.94 88.6946 231.889 88.4603 231.708 88.3291C231.527 88.2239 231.292 88.2744 231.161 88.4556L227.094 94.2278L223.053 100.026L220.77 103.288C220.665 103.469 220.716 103.703 220.897 103.835C221.104 103.94 221.339 103.889 221.418 103.708Z" fill="black"/>
<path d="M139.221 137.842C139.924 137.847 140.498 137.28 140.503 136.577C140.507 135.873 139.94 135.299 139.237 135.295C138.533 135.29 137.959 135.857 137.955 136.56C137.95 137.264 138.517 137.838 139.221 137.842Z" fill="#FFC140"/>
<path d="M103.472 141.567C104.176 141.572 104.75 141.005 104.754 140.301C104.759 139.598 104.192 139.024 103.488 139.019C102.785 139.015 102.211 139.582 102.206 140.285C102.202 140.989 102.768 141.563 103.472 141.567Z" fill="#FFC140"/>
<path d="M122.472 142.624C123.175 142.629 123.749 142.062 123.754 141.358C123.758 140.655 123.191 140.081 122.488 140.076C121.784 140.072 121.21 140.639 121.206 141.342C121.201 142.046 121.768 142.62 122.472 142.624Z" fill="#FFC140"/>
<path d="M109.365 126.759C110.068 126.763 110.642 126.196 110.647 125.493C110.651 124.789 110.085 124.215 109.381 124.211C108.677 124.206 108.103 124.773 108.099 125.476C108.094 126.18 108.661 126.754 109.365 126.759Z" fill="#FFC140"/>
<path d="M127.204 130.356C127.908 130.36 128.482 129.794 128.486 129.09C128.491 128.386 127.924 127.812 127.22 127.808C126.517 127.803 125.943 128.37 125.938 129.074C125.934 129.777 126.5 130.351 127.204 130.356Z" fill="#FFC140"/>
<path d="M117.538 117.061C118.242 117.065 118.816 116.498 118.821 115.795C118.825 115.091 118.258 114.517 117.555 114.513C116.851 114.508 116.277 115.075 116.273 115.779C116.268 116.482 116.835 117.056 117.538 117.061Z" fill="#FFC140"/>
<path d="M51.1259 93.6786C51.8295 93.6831 52.4035 93.1164 52.408 92.4128C52.4125 91.7092 51.8457 91.1352 51.1421 91.1307C50.4385 91.1262 49.8645 91.6929 49.86 92.3965C49.8556 93.1001 50.4223 93.6741 51.1259 93.6786Z" fill="#FFC140"/>
<path d="M78.1884 106.617C78.892 106.621 79.466 106.055 79.4705 105.351C79.475 104.648 78.9082 104.074 78.2046 104.069C77.501 104.065 76.927 104.631 76.9225 105.335C76.9181 106.038 77.4848 106.612 78.1884 106.617Z" fill="#FFC140"/>
<path d="M61.7377 105.342C62.4413 105.347 63.0153 104.78 63.0198 104.076C63.0243 103.373 62.4575 102.799 61.754 102.794C61.0504 102.79 60.4763 103.357 60.4719 104.06C60.4674 104.764 61.0341 105.338 61.7377 105.342Z" fill="#FFC140"/>
<path d="M82.2455 126.819C82.9491 126.824 83.5232 126.257 83.5277 125.553C83.5321 124.85 82.9654 124.276 82.2618 124.271C81.5582 124.267 80.9842 124.834 80.9797 125.537C80.9752 126.241 81.5419 126.815 82.2455 126.819Z" fill="#FFC140"/>
<path d="M116.004 100.852C116.707 100.857 117.281 100.29 117.286 99.5862C117.29 98.8826 116.724 98.3086 116.02 98.3041C115.316 98.2997 114.742 98.8664 114.738 99.57C114.733 100.274 115.3 100.848 116.004 100.852Z" fill="#FFC140"/>
<path d="M134.082 99.5631C134.786 99.5676 135.36 99.0009 135.365 98.2973C135.369 97.5937 134.802 97.0197 134.099 97.0152C133.395 97.0107 132.821 97.5775 132.817 98.281C132.812 98.9846 133.379 99.5587 134.082 99.5631Z" fill="#FFC140"/>
<path d="M126.202 79.5708C126.905 79.5753 127.479 79.0086 127.484 78.305C127.488 77.6014 126.921 77.0274 126.218 77.0229C125.514 77.0184 124.94 77.5851 124.936 78.2887C124.931 78.9923 125.498 79.5664 126.202 79.5708Z" fill="#FFC140"/>
<path d="M141.309 75.3769C142.013 75.3814 142.587 74.8147 142.591 74.1111C142.596 73.4075 142.029 72.8335 141.325 72.829C140.622 72.8245 140.048 73.3912 140.043 74.0948C140.039 74.7984 140.605 75.3725 141.309 75.3769Z" fill="#FFC140"/>
<path d="M187.841 129.833C189.08 131.14 190.241 132.526 191.324 133.963C192.407 135.426 193.411 136.966 194.337 138.558C195.237 140.15 196.059 141.767 196.75 143.462C198.159 146.799 199.176 150.315 199.777 153.907C199.802 154.115 199.852 154.35 199.877 154.558C199.928 154.766 200.161 154.872 200.343 154.821C200.552 154.744 200.657 154.537 200.606 154.354C200.332 152.533 199.953 150.736 199.471 148.965C198.988 147.194 198.375 145.448 197.684 143.754C196.993 142.033 196.198 140.364 195.324 138.746C193.55 135.511 191.386 132.507 188.881 129.813L188.416 129.29C188.054 128.898 187.505 129.466 187.841 129.833Z" fill="white"/>
<path d="M102 86.957C102.359 86.9593 102.652 86.6701 102.654 86.3112C102.657 85.9522 102.367 85.6593 102.008 85.657C101.649 85.6547 101.357 85.9439 101.354 86.3029C101.352 86.6619 101.641 86.9547 102 86.957Z" fill="black"/>
<path d="M60.2098 84.0384C60.1578 84.0381 60.1058 84.0378 60.054 84.0114C48.1514 79.0475 40.5314 67.0907 36.2217 57.937C33.4002 51.8869 31.2043 45.5808 29.6856 39.097C29.6349 38.8886 29.7662 38.6815 30.0005 38.631C30.2349 38.5805 30.416 38.7116 30.4666 38.9459C31.9856 45.3778 34.1556 51.6577 36.9516 57.6297C41.1842 66.6528 48.7012 78.453 60.3705 83.3114C60.578 83.3908 60.6545 83.6252 60.5751 83.8327C60.5225 83.9364 60.3658 84.0394 60.2098 84.0384Z" fill="black"/>
<path d="M33.4038 67.6173C33.2998 67.6166 33.222 67.5901 33.1445 67.5116C25.2057 60.7009 20.3571 50.4258 17.6744 42.9985C15.9626 38.2555 14.6416 33.385 13.7373 28.4131C13.7126 28.205 13.8439 27.9978 14.0781 27.9733C14.2862 27.9486 14.4934 28.0799 14.5179 28.3141C14.5682 28.5744 18.6698 54.0811 33.6421 66.9428C33.7973 67.0738 33.8217 67.3339 33.6907 67.4891C33.6382 67.5667 33.5078 67.6179 33.4038 67.6173Z" fill="black"/>
<path d="M152.85 51.3741C152.85 51.3741 156.855 47.1356 158.384 47.8213C159.914 48.5071 157.828 53.6159 156.1 55.4769" fill="#FFCDB2"/>
<path d="M156.097 55.8666C155.993 55.8659 155.916 55.8134 155.838 55.761C155.683 55.604 155.685 55.37 155.816 55.2148C157.177 53.7674 158.786 50.1116 158.484 48.6276C158.408 48.2892 158.278 48.2103 158.226 48.21C157.371 47.8145 154.731 50.0078 153.134 51.6616C153.003 51.8168 152.743 51.8411 152.588 51.7101C152.433 51.5792 152.408 51.319 152.539 51.1638C152.54 51.1378 152.566 51.138 152.566 51.112C153.272 50.3625 156.858 46.7192 158.543 47.484C158.932 47.6685 159.189 48.0601 159.239 48.4765C159.592 50.2207 157.903 54.1101 156.384 55.7644C156.306 55.8419 156.201 55.8673 156.097 55.8666Z" fill="black"/>
<path d="M136.483 130.935C136.327 130.934 136.171 130.829 136.12 130.699C132.129 120.533 114.765 111.609 114.584 111.529C114.376 111.45 114.3 111.216 114.379 111.008C114.459 110.801 114.693 110.724 114.901 110.803C114.901 110.803 114.927 110.804 114.926 110.83C115.652 111.198 132.731 119.965 136.824 130.417C136.901 130.626 136.795 130.833 136.613 130.936C136.587 130.936 136.535 130.936 136.483 130.935Z" fill="white"/>
<path d="M32.8203 110.176C32.6383 110.175 32.4831 110.044 32.4581 109.888C32.2551 109.107 27.639 90.9028 36.2958 87.0319C37.7821 86.3653 39.1859 86.4003 40.5071 87.1627C46.0512 90.2921 47.8548 105.124 47.9288 105.748C47.9535 105.957 47.7961 106.164 47.588 106.188C47.3798 106.213 47.1728 106.056 47.1481 105.847C47.1231 105.691 45.2941 90.7813 40.1128 87.8362C39.0248 87.2052 37.8809 87.172 36.6033 87.7358C28.5463 91.3246 33.1366 109.502 33.1874 109.685C33.2381 109.893 33.1067 110.1 32.9244 110.151C32.8723 110.177 32.8463 110.176 32.8203 110.176Z" fill="black"/>
<path d="M40.8633 108.849C40.8373 108.849 40.8113 108.849 40.7853 108.849C40.5776 108.796 40.4489 108.587 40.5023 108.379C40.5293 108.223 44.0025 93.6072 40.1574 89.0586C39.3575 88.0914 38.2682 87.6685 36.8896 87.7637C28.0718 88.3315 26.081 106.961 26.0797 107.169C26.0524 107.377 25.8694 107.532 25.6614 107.531C25.4535 107.503 25.2987 107.32 25.3 107.112C25.3832 106.307 27.3742 87.6251 36.8424 87.0094C38.4552 86.8897 39.7776 87.4441 40.7323 88.5942C44.8354 93.4565 41.3887 107.995 41.2288 108.618C41.1761 108.721 41.0193 108.85 40.8633 108.849Z" fill="black"/>
<path d="M23.5835 103.097C23.5835 103.097 18.6592 116.95 20.3403 126.503C20.3403 126.503 26.2896 131.351 41.2133 131.446C41.2133 131.446 47.5757 120.411 45.6511 108.256C45.6511 108.256 36.7239 101.517 23.5835 103.097Z" fill="#7800FF"/>
<path d="M27.8227 102.864C38.6124 102.933 45.6507 108.256 45.6507 108.256C47.5753 120.41 41.2128 131.446 41.2128 131.446L41.1348 131.446C26.2631 131.351 20.3399 126.503 20.3399 126.503C18.6587 116.95 23.5831 103.097 23.5831 103.097C24.9881 102.95 26.3927 102.855 27.8227 102.864ZM27.8276 102.084C26.3717 102.075 24.941 102.17 23.5099 102.343C23.2237 102.367 22.9624 102.573 22.8826 102.859C22.671 103.429 17.8784 116.997 19.6109 126.654C19.6357 126.836 19.7388 126.993 19.8939 127.124C20.1526 127.334 26.2061 132.13 41.1818 132.226L41.2598 132.226C41.5458 132.228 41.8068 132.074 41.9383 131.841C43.175 129.535 44.1784 127.123 44.9223 124.632C46.1696 120.661 47.4565 114.559 46.4575 108.131C46.4328 107.923 46.33 107.74 46.1486 107.635C45.8121 107.399 38.7214 102.154 27.8276 102.084Z" fill="black"/>
<path d="M29.5046 108.257C29.5046 108.257 29.671 122.948 34.5837 131.326C34.5837 131.326 41.848 133.816 55.8688 128.705C55.8688 128.705 58.0028 116.161 51.9872 105.41C51.9872 105.41 41.2695 102.196 29.5046 108.257Z" fill="#D9CFFF"/>
<path d="M39.6475 132.32C36.3456 132.299 34.6071 131.742 34.4774 131.689C34.3996 131.662 34.3221 131.584 34.2706 131.506C29.3579 123.128 29.1369 108.852 29.1408 108.228C29.1418 108.072 29.2206 107.943 29.3511 107.866C41.116 101.805 51.9901 104.968 52.1199 104.995C52.2237 105.021 52.3012 105.1 52.3527 105.178C58.3685 115.903 56.3115 128.604 56.2849 128.708C56.258 128.838 56.1532 128.967 56.0229 129.018C48.6995 131.728 43.2354 132.343 39.6475 132.32ZM34.8459 130.989C35.8841 131.282 42.9716 132.939 55.5067 128.417C55.7516 126.702 57.0455 115.426 51.6991 105.746C50.3753 105.4 40.5357 103.101 29.8932 108.493C29.9589 110.418 30.4744 123.369 34.8459 130.989Z" fill="black"/>
<path d="M21.9279 126.201C21.7199 126.2 21.5649 126.043 21.5402 125.834C20.7949 116.314 24.7099 105.808 24.7625 105.705C24.8677 105.523 25.1024 105.421 25.2837 105.526C25.4392 105.605 25.542 105.788 25.4889 105.969C25.4362 106.073 21.5742 116.422 22.3207 125.761C22.3454 125.97 22.188 126.177 21.9799 126.201L21.9279 126.201V126.201Z" fill="white"/>
<path d="M34.8927 111.385C35.2804 111.387 35.5967 111.075 35.5992 110.688C35.6017 110.3 35.2894 109.984 34.9017 109.981C34.514 109.979 34.1977 110.291 34.1952 110.679C34.1928 111.066 34.5051 111.383 34.8927 111.385Z" fill="#7800FF"/>
<path d="M44.0573 117.58C44.445 117.582 44.7613 117.27 44.7638 116.883C44.7662 116.495 44.4539 116.179 44.0662 116.176C43.6785 116.174 43.3623 116.486 43.3598 116.874C43.3573 117.261 43.6696 117.578 44.0573 117.58Z" fill="#7800FF"/>
<path d="M44.78 110.252C45.1676 110.255 45.4839 109.942 45.4864 109.555C45.4889 109.167 45.1766 108.851 44.7889 108.848C44.4012 108.846 44.0849 109.158 44.0824 109.546C44.08 109.933 44.3923 110.25 44.78 110.252Z" fill="#7800FF"/>
<path d="M40.1286 130.217C40.5163 130.219 40.8326 129.907 40.835 129.519C40.8375 129.132 40.5252 128.815 40.1375 128.813C39.7498 128.811 39.4335 129.123 39.4311 129.511C39.4286 129.898 39.7409 130.214 40.1286 130.217Z" fill="#7800FF"/>
<path d="M52.6017 127.255C52.9894 127.257 53.3057 126.945 53.3082 126.557C53.3107 126.169 52.9984 125.853 52.6107 125.851C52.223 125.848 51.9067 126.161 51.9042 126.548C51.9017 126.936 52.214 127.252 52.6017 127.255Z" fill="#7800FF"/>
<path d="M39.4489 122.673C39.8366 122.675 40.1529 122.363 40.1554 121.975C40.1578 121.588 39.8455 121.271 39.4578 121.269C39.0702 121.266 38.7539 121.579 38.7514 121.966C38.7489 122.354 39.0612 122.67 39.4489 122.673Z" fill="#7800FF"/>
<path d="M50.9484 117.442C51.3361 117.444 51.6524 117.132 51.6549 116.744C51.6573 116.356 51.345 116.04 50.9574 116.038C50.5697 116.035 50.2534 116.347 50.2509 116.735C50.2484 117.123 50.5607 117.439 50.9484 117.442Z" fill="#7800FF"/>
<path d="M36.103 129.542C35.973 129.541 35.8435 129.462 35.7662 129.358C31.4201 121.816 31.4889 111.026 31.4897 110.896C31.491 110.688 31.6742 110.507 31.8822 110.508C32.0902 110.51 32.271 110.693 32.2697 110.901C32.269 111.005 32.2016 121.587 36.4448 128.946C36.5476 129.129 36.4681 129.362 36.3115 129.465C36.2332 129.517 36.155 129.542 36.103 129.542Z" fill="white"/>
<path d="M14.0577 124.955C13.8757 124.953 13.7205 124.822 13.6697 124.64C11.1887 114.12 14.608 107.954 16.0549 105.311C16.2126 105.052 16.3442 104.793 16.4232 104.637C16.5284 104.456 16.763 104.353 16.9444 104.459C17.1257 104.564 17.2282 104.798 17.123 104.98C17.0177 105.187 16.8862 105.42 16.7284 105.705C15.3082 108.244 11.994 114.229 14.4248 124.463C14.4755 124.671 14.3442 124.878 14.1359 124.929C14.1097 124.955 14.0837 124.955 14.0577 124.955Z" fill="black"/>
<path d="M154.393 49.9018C154.602 49.7211 154.838 49.5146 155.073 49.3081C154.347 49.0175 153.568 48.8825 152.787 48.9555C143.319 49.5712 141.328 68.2529 141.245 69.0584C141.217 69.2662 141.372 69.4752 141.606 69.4767C141.814 69.504 142.023 69.3493 142.024 69.1153C142.052 68.9335 144.042 50.3038 152.834 49.7098C153.38 49.7133 153.9 49.7686 154.393 49.9018Z" fill="black"/>
<path d="M157.359 53.6651C158.985 59.6296 156.473 70.2738 156.446 70.3776C156.393 70.5853 156.522 70.7941 156.729 70.8474C156.755 70.8476 156.781 70.8478 156.807 70.8479C156.989 70.8491 157.146 70.7201 157.199 70.5384C157.333 69.9933 160.005 58.6741 157.859 52.6543C157.701 53.0173 157.543 53.3283 157.359 53.6651Z" fill="black"/>
<path d="M154.288 50.0051C153.431 49.9217 152.546 50.072 151.763 50.4571C143.106 54.328 147.722 72.5317 147.925 73.3131C147.976 73.4954 148.132 73.6004 148.314 73.6015C148.34 73.6017 148.392 73.602 148.418 73.6022C148.626 73.5515 148.757 73.3443 148.706 73.136C148.656 72.9537 144.065 54.7761 152.122 51.1874C152.566 50.9822 153.035 50.8552 153.503 50.8062C153.713 50.5475 153.974 50.2891 154.288 50.0051Z" fill="black"/>
<path d="M163.396 69.1473C163.322 68.6009 161.963 57.386 157.991 52.3686C157.859 52.6278 157.754 52.8871 157.622 53.1463C161.282 58.1357 162.616 69.1164 162.642 69.2205C162.666 69.4287 162.873 69.586 163.081 69.5613C163.29 69.5367 163.447 69.3557 163.396 69.1473Z" fill="black"/>
<path d="M139.077 66.4968C139.077 66.4968 134.127 80.3495 135.834 89.9026C135.834 89.9026 141.783 94.7506 156.707 94.8457C156.707 94.8457 163.069 83.81 161.145 71.6555C161.145 71.6555 152.217 64.9165 139.077 66.4968Z" fill="#D9CFFF"/>
<path d="M156.626 95.2349C141.806 95.1405 135.83 90.4223 135.597 90.2128C135.52 90.1603 135.468 90.082 135.469 89.978C133.788 80.4251 138.528 66.961 138.739 66.3643C138.792 66.2347 138.923 66.1315 139.053 66.1063C152.193 64.526 161.303 71.2662 161.38 71.3187C161.458 71.3712 161.509 71.4755 161.535 71.5797C163.459 83.7342 157.122 94.9001 157.043 95.0296C156.964 95.1591 156.834 95.2102 156.704 95.2354L156.626 95.2349ZM136.199 89.6966C137.079 90.3262 143.137 94.3429 156.475 94.4539C157.291 92.9251 162.451 82.8178 160.779 71.8869C159.666 71.0998 151.225 65.5339 139.36 66.8883C138.751 68.6785 134.72 81.003 136.199 89.6966Z" fill="black"/>
<path d="M144.998 71.6562C144.998 71.6562 145.164 86.3476 150.077 94.725C150.077 94.725 157.341 97.2154 171.362 92.1046C171.362 92.1046 173.496 79.5599 167.48 68.8094C167.48 68.8094 156.763 65.595 144.998 71.6562Z" fill="#7800FF"/>
<path d="M155.141 95.7193C151.839 95.6982 150.1 95.1411 149.971 95.0883C149.893 95.0618 149.815 94.9833 149.764 94.905C144.851 86.5275 144.63 72.2518 144.634 71.6278C144.635 71.4718 144.714 71.3423 144.844 71.2652C156.609 65.204 167.483 68.3674 167.613 68.3942C167.717 68.4209 167.794 68.4993 167.846 68.5777C173.862 79.3022 171.805 91.9774 171.778 92.1072C171.751 92.237 171.646 92.3664 171.516 92.4176C164.193 95.1269 158.729 95.7421 155.141 95.7193ZM150.339 94.3887C151.377 94.6813 158.465 96.3385 171 91.8163C171.245 90.1018 172.565 78.826 167.192 69.1455C165.868 68.7991 156.029 66.5003 145.386 71.8926C145.452 73.8171 145.968 86.7686 150.339 94.3887Z" fill="black"/>
<path d="M137.422 89.6002C137.214 89.5989 137.059 89.4419 137.034 89.2338C136.289 79.7128 140.204 69.2075 140.256 69.1039C140.31 68.8962 140.518 68.7675 140.726 68.8209C140.934 68.8742 141.062 69.083 141.009 69.2907C141.009 69.3167 140.983 69.3425 140.983 69.3685C140.93 69.4722 137.094 79.8219 137.814 89.1607C137.839 89.3689 137.682 89.5759 137.448 89.5744L137.422 89.6002Z" fill="white"/>
<path d="M150.386 74.7844C150.774 74.7869 151.09 74.4746 151.092 74.0869C151.095 73.6992 150.783 73.3829 150.395 73.3804C150.007 73.378 149.691 73.6903 149.688 74.078C149.686 74.4657 149.998 74.782 150.386 74.7844Z" fill="#7800FF"/>
<path d="M159.551 80.9794C159.939 80.9819 160.255 80.6696 160.257 80.2819C160.26 79.8942 159.948 79.5779 159.56 79.5755C159.172 79.573 158.856 79.8853 158.853 80.273C158.851 80.6607 159.163 80.977 159.551 80.9794Z" fill="#7800FF"/>
<path d="M160.274 73.6515C160.661 73.654 160.978 73.3417 160.98 72.954C160.983 72.5663 160.67 72.25 160.283 72.2476C159.895 72.2451 159.579 72.5574 159.576 72.9451C159.574 73.3328 159.886 73.6491 160.274 73.6515Z" fill="#7800FF"/>
<path d="M155.622 93.6165C156.01 93.619 156.326 93.3067 156.329 92.919C156.331 92.5313 156.019 92.215 155.631 92.2125C155.243 92.2101 154.927 92.5224 154.925 92.9101C154.922 93.2978 155.235 93.614 155.622 93.6165Z" fill="#7800FF"/>
<path d="M168.07 90.6541C168.457 90.6566 168.773 90.3443 168.776 89.9566C168.778 89.5689 168.466 89.2526 168.078 89.2501C167.691 89.2477 167.374 89.56 167.372 89.9477C167.37 90.3354 167.682 90.6516 168.07 90.6541Z" fill="#7800FF"/>
<path d="M154.943 86.0463C155.33 86.0487 155.647 85.7364 155.649 85.3488C155.651 84.9611 155.339 84.6448 154.952 84.6423C154.564 84.6398 154.248 84.9521 154.245 85.3398C154.243 85.7275 154.555 86.0438 154.943 86.0463Z" fill="#7800FF"/>
<path d="M166.442 80.841C166.83 80.8435 167.146 80.5312 167.149 80.1435C167.151 79.7558 166.839 79.4395 166.451 79.437C166.063 79.4346 165.747 79.7468 165.745 80.1345C165.742 80.5222 166.054 80.8385 166.442 80.841Z" fill="#7800FF"/>
<path d="M151.597 92.9412C151.467 92.9403 151.337 92.8615 151.26 92.757C146.914 85.2152 146.983 74.3994 146.983 74.2954C146.985 74.0874 147.142 73.9064 147.35 73.9077C147.35 73.9077 147.35 73.9077 147.376 73.9079C147.584 73.9092 147.765 74.0924 147.763 74.3004C147.763 74.4044 147.695 84.9861 151.938 92.3453C152.041 92.528 151.988 92.7616 151.805 92.8645C151.727 92.916 151.649 92.9415 151.597 92.9412Z" fill="white"/>
<path d="M152.59 75.8131C153.107 75.8164 153.528 75.4 153.532 74.8831C153.535 74.3662 153.118 73.9444 152.602 73.9411C152.085 73.9379 151.663 74.3542 151.66 74.8712C151.656 75.3881 152.073 75.8098 152.59 75.8131Z" fill="#59298F"/>
<path d="M164.54 73.2369C165.057 73.2402 165.479 72.8238 165.482 72.3068C165.485 71.7899 165.069 71.3682 164.552 71.3649C164.035 71.3616 163.614 71.778 163.61 72.2949C163.607 72.8118 164.023 73.2336 164.54 73.2369Z" fill="#59298F"/>
<path d="M159.406 79.2366C159.923 79.2399 160.345 78.8235 160.348 78.3066C160.351 77.7896 159.935 77.3679 159.418 77.3646C158.901 77.3613 158.479 77.7777 158.476 78.2946C158.473 78.8116 158.889 79.2333 159.406 79.2366Z" fill="#59298F"/>
<path d="M168.402 87.4057C168.919 87.409 169.341 86.9926 169.344 86.4757C169.347 85.9588 168.931 85.537 168.414 85.5337C167.897 85.5304 167.475 85.9468 167.472 86.4637C167.469 86.9807 167.885 87.4024 168.402 87.4057Z" fill="#59298F"/>
<path d="M154.266 86.1457C154.783 86.149 155.205 85.7326 155.208 85.2157C155.211 84.6987 154.795 84.277 154.278 84.2737C153.761 84.2704 153.339 84.6868 153.336 85.2037C153.333 85.7207 153.749 86.1424 154.266 86.1457Z" fill="#59298F"/>
<path d="M160.253 93.1524C160.77 93.1557 161.192 92.7393 161.195 92.2224C161.198 91.7055 160.782 91.2837 160.265 91.2804C159.748 91.2771 159.326 91.6935 159.323 92.2105C159.32 92.7274 159.736 93.1491 160.253 93.1524Z" fill="#59298F"/>
<path d="M164.63 79.6337C164.422 79.6324 164.241 79.4492 164.242 79.2412C164.243 79.0852 164.348 78.9299 164.505 78.8789C173.233 76.0225 180.937 70.6894 186.703 63.55C191.027 58.1695 192.746 53.6043 192.773 53.5525C192.852 53.345 193.086 53.2685 193.294 53.3478C193.475 53.427 193.552 53.6355 193.499 53.8171C193.42 53.9986 191.701 58.5378 187.298 64.0218C181.453 71.2907 173.619 76.7009 164.76 79.6085C164.708 79.6342 164.682 79.634 164.63 79.6337Z" fill="black"/>
<path d="M169.291 82.5235C169.083 82.5222 168.902 82.365 168.878 82.1569C168.879 81.9489 169.036 81.7679 169.244 81.7432C187.535 79.8317 192.619 69.4899 192.671 69.3863C192.751 69.1788 192.985 69.1023 193.193 69.1816C193.4 69.2609 193.477 69.4954 193.397 69.7029L193.397 69.7289C193.345 69.8326 192.08 72.5025 188.447 75.4174C185.128 78.1003 179.126 81.5202 169.343 82.5238L169.291 82.5235Z" fill="black"/>
<path d="M31.0799 97.633C31.0799 97.633 27.1074 96.7496 27.2389 92.4344C27.3704 88.1191 28.8516 84.1765 31.8508 82.7396C34.85 81.3027 37.3145 82.1764 38.5535 83.5883C39.7926 85.0002 39.3388 86.8434 37.2512 88.0261C37.2512 88.0261 38.8971 90.8706 35.141 92.7707C35.141 92.7707 35.966 97.9501 31.662 96.0506L31.0799 97.633Z" fill="#FFCDB2"/>
<path d="M34.8718 82.0052C36.2759 81.9881 37.5983 82.5686 38.5278 83.5885C39.7668 85.0004 39.313 86.8436 37.2255 88.0263C37.2255 88.0263 38.8714 90.8708 35.1152 92.7709C35.1152 92.7709 35.7157 96.4668 33.2717 96.4513C32.6999 96.4216 32.1547 96.2881 31.6364 96.0248L31.0543 97.6072C31.0543 97.6072 27.0818 96.7238 27.2133 92.4086C27.3448 88.0933 28.826 84.1507 31.8252 82.7138C32.7642 82.2518 33.8056 82.0244 34.8718 82.0052ZM34.8768 81.2252C33.7066 81.2437 32.5608 81.5224 31.5175 82.0358C28.5183 83.4727 26.6215 87.3607 26.4593 92.4038C26.2855 95.2107 28.1675 97.7188 30.9193 98.3863C30.9713 98.3866 31.0232 98.413 31.0752 98.4133C31.4131 98.4155 31.7005 98.2093 31.8065 97.898L32.1239 97.042C32.5131 97.1744 32.9027 97.2289 33.2927 97.2314C34.0205 97.262 34.6985 96.9544 35.17 96.4114C35.9819 95.4805 36.0174 93.9987 35.9445 93.1922C37.1451 92.4719 37.9048 91.5927 38.2234 90.5547C38.436 89.828 38.415 89.0479 38.1855 88.3444C39.1781 87.6227 39.7817 86.7426 39.944 85.7556C40.0803 84.7684 39.7746 83.7785 39.1031 83.0722C38.0187 81.8692 36.4889 81.2095 34.8768 81.2252Z" fill="black"/>
<path d="M35.1389 93.1613C35.0349 93.1606 34.9312 93.1079 34.8537 93.0294C33.0975 91.1722 30.3936 91.155 30.3416 91.1547C30.1336 91.1533 29.9527 90.9702 29.9541 90.7622C29.9554 90.5542 30.1385 90.3734 30.3465 90.3747C30.4765 90.3755 33.4145 90.3942 35.4032 92.4869C35.5582 92.6439 35.5567 92.8779 35.3997 93.0329C35.347 93.1366 35.2429 93.1619 35.1389 93.1613Z" fill="black"/>
<path d="M37.3523 88.4953C37.2483 88.4947 37.1704 88.4682 37.0929 88.3897C34.2487 85.9015 32.215 86.7986 32.1366 86.8501C31.954 86.9529 31.7207 86.8474 31.6178 86.6647C31.515 86.4821 31.6205 86.2487 31.8031 86.1459C31.9075 86.0946 34.3587 84.9662 37.6166 87.821C37.7717 87.952 37.7961 88.2121 37.6391 88.3672C37.5866 88.4448 37.4563 88.496 37.3523 88.4953Z" fill="black"/>
<path d="M30.6392 85.2027C30.5352 85.202 30.4055 85.1492 30.3278 85.0967C30.095 84.9132 30.071 84.601 30.2545 84.3682C30.333 84.2907 31.8792 82.3765 34.2726 82.1578C35.7814 82.0374 37.2859 82.593 38.7338 83.8762C38.9404 84.0856 38.9383 84.4236 38.7291 84.6042C38.546 84.7851 38.2598 84.8092 38.0528 84.6519C36.8376 83.5781 35.6186 83.1024 34.396 83.1986C32.4449 83.3681 31.1085 84.9977 31.0823 85.0235C30.9515 85.1527 30.7952 85.2037 30.6392 85.2027Z" fill="white"/>
<path d="M57.3174 125.829L86.2248 134.801L89.2462 146.209L179.75 146.786L166.563 188.328C165.635 191.261 162.802 195.091 159.734 195.175L104.719 194.746C101.495 194.83 98.6216 192.784 97.6532 189.709L81.5446 138.906L57.2811 131.523L57.3174 125.829V125.829Z" fill="#D9CFFF"/>
<path d="M159.731 195.565L104.717 195.137C101.336 195.219 98.3078 193.042 97.2882 189.837L81.2563 139.242L57.2005 131.912C57.0448 131.859 56.9158 131.703 56.9168 131.547L56.9531 125.853C56.9544 125.645 57.1376 125.464 57.3456 125.465C57.3716 125.465 57.4236 125.466 57.4494 125.492L86.3568 134.464C86.4866 134.491 86.59 134.596 86.6151 134.726L89.5603 145.847L179.779 146.422C179.987 146.423 180.167 146.606 180.166 146.814C180.166 146.866 180.166 146.892 180.139 146.918L166.927 188.435C166.024 191.263 163.138 195.483 159.731 195.565ZM104.722 194.357L159.736 194.785C162.727 194.7 165.351 190.817 166.2 188.196L179.254 147.146L89.2697 146.573C89.0877 146.572 88.9325 146.441 88.9075 146.285L85.9368 135.086L57.7301 126.326L57.6989 131.214L81.6769 138.517C81.8067 138.543 81.9101 138.648 81.9352 138.778L98.0438 189.582C98.9614 192.474 101.679 194.415 104.722 194.357Z" fill="black"/>
<path d="M111.192 194.84C111.063 194.839 110.933 194.76 110.856 194.656C100.278 177.688 99.2245 147.105 99.2005 146.793C99.2018 146.585 99.3589 146.404 99.5671 146.379C99.7753 146.354 99.9561 146.538 99.9808 146.746C99.9788 147.058 101.059 177.433 111.508 194.218C111.611 194.401 111.584 194.635 111.401 194.763C111.349 194.815 111.27 194.841 111.192 194.84Z" fill="black"/>
<path d="M151.154 194.991C150.946 194.989 150.766 194.806 150.767 194.598C150.767 194.52 150.794 194.442 150.82 194.39C162.689 176.058 163.289 147.201 163.291 146.915C163.292 146.707 163.475 146.526 163.683 146.527C163.891 146.529 164.072 146.712 164.071 146.92C164.069 147.206 163.468 176.297 151.468 194.811C151.389 194.914 151.284 194.991 151.154 194.991Z" fill="black"/>
<path d="M131.892 194.451C131.71 194.45 131.554 194.345 131.529 194.163C127.766 180.853 131.773 147.78 131.827 147.468C131.854 147.26 132.037 147.105 132.271 147.133C132.479 147.16 132.634 147.343 132.606 147.577C132.578 147.915 128.572 180.832 132.311 193.986C132.361 194.194 132.256 194.402 132.047 194.478C131.97 194.452 131.918 194.451 131.892 194.451Z" fill="black"/>
<path d="M109.506 218.724C113.498 218.749 116.755 215.534 116.78 211.542C116.806 207.55 113.59 204.293 109.598 204.268C105.607 204.243 102.35 207.458 102.325 211.45C102.299 215.442 105.515 218.698 109.506 218.724Z" fill="#D9CFFF"/>
<path d="M109.504 219.14C105.292 219.113 101.881 215.685 101.908 211.447C101.935 207.235 105.363 203.851 109.601 203.878C113.813 203.905 117.223 207.333 117.196 211.571C117.143 215.756 113.716 219.141 109.504 219.14ZM109.596 204.658C105.8 204.634 102.712 207.682 102.688 211.452C102.664 215.248 105.713 218.335 109.509 218.36C113.305 218.384 116.392 215.335 116.416 211.54C116.414 207.769 113.366 204.682 109.596 204.658Z" fill="black"/>
<path d="M154.485 219.01C158.477 219.036 161.734 215.82 161.759 211.829C161.785 207.837 158.569 204.58 154.577 204.555C150.586 204.529 147.329 207.745 147.304 211.736C147.278 215.728 150.494 218.985 154.485 219.01Z" fill="#D9CFFF"/>
<path d="M154.483 219.426C150.271 219.399 146.887 215.946 146.913 211.734C146.94 207.522 150.394 204.138 154.606 204.165C158.818 204.192 162.202 207.619 162.175 211.857C162.148 216.043 158.695 219.427 154.483 219.426ZM154.575 204.945C150.779 204.92 147.717 207.969 147.693 211.765C147.669 215.561 150.718 218.622 154.513 218.646C158.283 218.671 161.371 215.622 161.395 211.826C161.419 208.056 158.371 204.969 154.575 204.945Z" fill="black"/>
<path d="M102.488 198.06L162.365 198.442C162.988 198.446 163.505 198.969 163.501 199.593L163.494 200.711C163.49 201.335 162.967 201.852 162.343 201.848L102.466 201.466C101.842 201.462 101.325 200.939 101.329 200.315L101.336 199.197C101.34 198.573 101.864 198.056 102.488 198.06Z" fill="#D9CFFF"/>
<path d="M162.315 202.212L102.464 201.83C101.632 201.825 100.934 201.144 100.94 200.286L100.947 199.168C100.952 198.336 101.633 197.639 102.491 197.644L162.367 198.026C163.199 198.031 163.897 198.712 163.891 199.57L163.884 200.688C163.853 201.545 163.173 202.217 162.315 202.212ZM102.485 198.45C102.069 198.448 101.729 198.783 101.727 199.199L101.719 200.317C101.717 200.733 102.053 201.074 102.469 201.076L162.345 201.458C162.761 201.46 163.102 201.125 163.104 200.709L163.111 199.591C163.114 199.175 162.778 198.834 162.362 198.832L102.485 198.45Z" fill="black"/>
<path d="M118.163 198.55C117.955 198.549 117.774 198.366 117.776 198.158L117.797 194.856C117.798 194.648 117.981 194.467 118.189 194.468C118.397 194.47 118.578 194.653 118.577 194.861L118.556 198.163C118.554 198.371 118.371 198.552 118.163 198.55Z" fill="black"/>
<path d="M142.499 198.705C142.291 198.704 142.11 198.521 142.111 198.313L142.132 195.063C142.133 194.855 142.316 194.674 142.524 194.675C142.732 194.677 142.913 194.86 142.912 195.068L142.891 198.318C142.89 198.526 142.707 198.707 142.499 198.705Z" fill="black"/>
<path d="M154.414 213.861C155.563 213.869 156.5 212.943 156.508 211.795C156.515 210.646 155.59 209.709 154.441 209.701C153.292 209.694 152.355 210.619 152.348 211.768C152.34 212.917 153.266 213.854 154.414 213.861Z" fill="white"/>
<path d="M154.412 214.251C153.06 214.243 151.949 213.118 151.957 211.766C151.966 210.414 153.091 209.303 154.443 209.312C155.795 209.32 156.906 210.445 156.897 211.797C156.889 213.149 155.764 214.26 154.412 214.251ZM154.438 210.092C153.502 210.086 152.743 210.835 152.737 211.771C152.731 212.707 153.481 213.465 154.417 213.471C155.353 213.477 156.111 212.728 156.117 211.792C156.123 210.856 155.374 210.097 154.438 210.092Z" fill="black"/>
<path d="M109.435 213.575C110.584 213.582 111.521 212.657 111.529 211.508C111.536 210.359 110.611 209.422 109.462 209.415C108.313 209.408 107.376 210.333 107.369 211.482C107.361 212.63 108.287 213.567 109.435 213.575Z" fill="white"/>
<path d="M109.433 213.965C108.081 213.956 106.97 212.831 106.978 211.479C106.987 210.127 108.112 209.016 109.464 209.025C110.816 209.034 111.927 210.159 111.918 211.511C111.91 212.863 110.785 213.974 109.433 213.965ZM109.459 209.805C108.523 209.799 107.764 210.548 107.758 211.484C107.752 212.42 108.502 213.179 109.438 213.185C110.374 213.191 111.132 212.442 111.138 211.506C111.144 210.57 110.395 209.811 109.459 209.805Z" fill="black"/>
<path d="M107.753 191.854C107.623 191.853 107.494 191.774 107.417 191.67C97.6958 174.811 97.4814 151.331 97.4829 151.097C97.4842 150.889 97.6673 150.709 97.8753 150.71C98.0833 150.711 98.2642 150.894 98.2629 151.102C98.2614 151.336 98.4771 174.608 108.095 191.284C108.198 191.466 108.144 191.7 107.962 191.829C107.884 191.829 107.831 191.854 107.753 191.854Z" fill="white"/>
<path d="M154.553 192.152C154.345 192.151 154.164 191.968 154.165 191.76C154.166 191.682 154.192 191.604 154.245 191.552C165.847 174.258 165.1 152.802 165.101 152.594C165.102 152.386 165.26 152.205 165.468 152.181C165.676 152.156 165.857 152.339 165.881 152.547C165.88 152.755 166.652 174.471 154.892 191.972C154.813 192.076 154.683 192.153 154.553 192.152Z" fill="white"/>
<path d="M133.233 192.017C133.051 192.015 132.896 191.884 132.845 191.702C130.087 179.802 133.063 153.353 133.091 153.093C133.118 152.885 133.301 152.73 133.535 152.758C133.743 152.785 133.898 152.968 133.87 153.202C133.842 153.462 130.893 179.781 133.626 191.551C133.676 191.759 133.545 191.967 133.337 192.017C133.311 192.017 133.259 192.017 133.233 192.017Z" fill="white"/>
</svg>
