<svg width="154" height="147" viewBox="0 0 154 147" fill="none" xmlns="http://www.w3.org/2000/svg">
<g clip-path="url(#clip0_238_835)">
<path d="M172.517 118.835C172.517 134.389 159.682 147.001 143.851 147.001C128.018 147.001 115.185 134.389 115.185 118.835C115.185 103.278 128.018 90.6684 143.851 90.6684C159.682 90.6684 172.517 103.278 172.517 118.835Z" fill="#0055FF"/>
<path d="M136.685 51.9371C136.685 65.5496 125.455 76.5833 111.601 76.5833C97.7467 76.5833 86.5171 65.5496 86.5171 51.9371C86.5171 38.3262 97.7467 27.2908 111.601 27.2908C125.455 27.2908 136.685 38.3262 136.685 51.9371Z" fill="#0055FF"/>
<path d="M86.5169 104.749C86.5169 128.084 67.2645 147 43.5159 147C19.769 147 0.516602 128.084 0.516602 104.749C0.516602 81.4151 19.769 62.5001 43.5159 62.5001C67.2645 62.5001 86.5169 81.4151 86.5169 104.749Z" fill="#F6F7F9"/>
<path d="M72.1855 13.2094C72.1855 32.6547 56.1415 48.4188 36.351 48.4188C16.5606 48.4188 0.516602 32.6547 0.516602 13.2094C0.516602 -6.23587 16.5606 -22 36.351 -22C56.1415 -22 72.1855 -6.23587 72.1855 13.2094Z" fill="#0055FF"/>
<path d="M172.517 -0.875322C172.517 10.7918 162.89 20.2494 151.016 20.2494C139.142 20.2494 129.516 10.7918 129.516 -0.875322C129.516 -12.5425 139.142 -22 151.016 -22C162.89 -22 172.517 -12.5425 172.517 -0.875322Z" fill="#0055FF"/>
<path d="M165.349 69.5401C165.349 73.4291 162.141 76.5816 158.183 76.5816C154.225 76.5816 151.016 73.4291 151.016 69.5401C151.016 65.6526 154.225 62.5001 158.183 62.5001C162.141 62.5001 165.349 65.6526 165.349 69.5401Z" fill="#F6F7F9"/>
<path d="M111.601 2.64591C111.601 8.4803 106.788 13.2091 100.85 13.2091C94.9138 13.2091 90.1011 8.4803 90.1011 2.64591C90.1011 -3.18686 94.9138 -7.91562 100.85 -7.91562C106.788 -7.91562 111.601 -3.18686 111.601 2.64591Z" fill="#F6F7F9"/>
</g>
<defs>
<clipPath id="clip0_238_835">
<rect width="172" height="169" fill="white" transform="translate(0.516602 -22)"/>
</clipPath>
</defs>
</svg>
