<svg width="146" height="160" viewBox="0 0 146 160" fill="none" xmlns="http://www.w3.org/2000/svg">
<path d="M36.8161 33.9911H18.8179C18.8179 103.581 75.2262 160 144.816 160V141.999C85.1651 141.999 36.8161 93.6422 36.8161 33.9911Z" fill="#FAFE43"/>
<path d="M144.816 -37.9991V-56C95.1065 -56 54.8169 -15.7104 54.8169 33.9912C54.8169 83.7007 95.1065 124.001 144.816 124.001V106C105.048 106 72.8178 73.7619 72.8178 33.9938C72.8178 -5.76102 105.047 -37.9991 144.816 -37.9991Z" fill="#FAFE43"/>
<path d="M144.816 -20.0012C114.986 -20.0012 90.8159 4.16911 90.8159 33.9909C90.8159 63.8206 114.986 87.9988 144.816 87.9988V33.9988L198.816 33.9909C198.816 4.16911 174.648 -20.0012 144.816 -20.0012Z" fill="#FAFE43"/>
</svg>
