<svg width="15" height="17" viewBox="0 0 15 17" fill="none" xmlns="http://www.w3.org/2000/svg">
<path d="M14.0372 11.8432C13.0134 10.9581 12.2814 8.60626 12.2814 5.84377C12.2814 3.75276 10.9373 1.97998 9.06733 1.3308C8.94143 0.576407 8.29011 0 7.50013 0C6.71017 0 6.05886 0.576407 5.93293 1.33078C4.06293 1.97996 2.71888 3.75276 2.71888 5.84377C2.71888 8.60575 1.98736 10.957 0.963095 11.8432C0.391477 12.3378 0.0626221 13.056 0.0626221 13.8125C0.0626221 14.6928 0.776088 15.4063 1.65636 15.4063H5.90636C5.90636 16.2865 6.61983 17 7.5001 17C8.38038 17 9.09385 16.2865 9.09385 15.4063H13.3438C14.2241 15.4063 14.9376 14.6928 14.9376 13.8125C14.9376 13.0566 14.6093 12.3378 14.0372 11.8432ZM1.65636 13.8125C1.65636 13.5193 1.78387 13.2404 2.00539 13.0486C3.4286 11.8182 4.3126 9.05728 4.3126 5.84374C4.3126 4.08584 5.7422 2.65623 7.5001 2.65623C9.25801 2.65623 10.6876 4.08584 10.6876 5.84374C10.6876 9.05728 11.5716 11.8182 12.9948 13.0486C13.2169 13.2409 13.3439 13.5192 13.3439 13.8125H1.65636Z" fill="#959CB6"/>
</svg>
