<svg width="17" height="17" viewBox="0 0 17 17" fill="none" xmlns="http://www.w3.org/2000/svg">
<path d="M16.2683 0H5.42391C5.02509 0 4.6991 0.325989 4.6991 0.724806V4.70257H0.724806C0.325989 4.70257 0 5.02856 0 5.42738V16.2752C0 16.674 0.325989 17 0.724806 17H11.5726C11.9714 17 12.2974 16.674 12.2974 16.2752V12.294H16.2752C16.674 12.294 17 11.968 17 11.5692V0.724806C16.9931 0.325989 16.6671 0 16.2683 0ZM10.8478 15.5816H1.41146V6.14525H4.70257V11.5692C4.70257 11.968 5.02856 12.294 5.42738 12.294H10.8513V15.5816H10.8478ZM10.8478 10.8478H6.14525V6.14525H10.8443V10.8478H10.8478ZM15.5816 10.8478H12.2905V5.42391C12.2905 5.02509 11.9645 4.6991 11.5657 4.6991H6.14525V1.41146H15.5816V10.8478Z" fill="#959CB6"/>
</svg>
