<svg width="17" height="17" viewBox="0 0 17 17" fill="none" xmlns="http://www.w3.org/2000/svg">
<path d="M15.6938 0.00927734H1.30621C0.58481 0.00927734 0 0.594088 0 1.31549H17C17 0.594088 16.4152 0.00927734 15.6938 0.00927734Z" fill="#FF4B55"/>
<path d="M17 5.23394H0V6.54015H17V5.23394Z" fill="#FF4B55"/>
<path d="M17 2.62097H0V3.92718H17V2.62097Z" fill="#FF4B55"/>
<path d="M17 7.8467H0V9.15291H17V7.8467Z" fill="#FF4B55"/>
<path d="M17 13.0725H0V14.3787H17V13.0725Z" fill="#FF4B55"/>
<path d="M17 15.6856H0C0 16.407 0.584812 16.9918 1.30621 16.9918H15.6938C16.4152 16.9918 17 16.407 17 15.6856Z" fill="#FF4B55"/>
<path d="M17 10.4598H0V11.766H17V10.4598Z" fill="#FF4B55"/>
<path d="M9.14547 0.00927734H1C0.447715 0.00927734 0 0.456991 0 1.00928V9.15475H9.14547V0.00927734Z" fill="#41479B"/>
<path d="M1.16936 0.691174L1.23982 0.902479L1.46255 0.904205C1.49137 0.904438 1.50335 0.941227 1.48015 0.95836L1.30098 1.09067L1.36815 1.30304C1.37685 1.33053 1.34557 1.35328 1.32207 1.33651L1.14084 1.20698L0.95962 1.33651C0.936179 1.35331 0.904869 1.33053 0.913535 1.30304L0.980704 1.09067L0.80154 0.95836C0.778365 0.941227 0.790285 0.904438 0.819138 0.904205L1.04186 0.902479L1.11232 0.691174C1.12155 0.663814 1.16027 0.663814 1.16936 0.691174Z" fill="white"/>
<path d="M1.16936 2.45382L1.23982 2.66513L1.46255 2.66685C1.49137 2.66709 1.50335 2.70388 1.48015 2.72101L1.30098 2.85332L1.36815 3.06569C1.37685 3.09318 1.34557 3.11593 1.32207 3.09916L1.14084 2.96963L0.95962 3.09916C0.936179 3.11596 0.904869 3.09318 0.913535 3.06569L0.980704 2.85332L0.80154 2.72101C0.778365 2.70388 0.790285 2.66709 0.819138 2.66685L1.04186 2.66513L1.11232 2.45382C1.12155 2.42643 1.16027 2.42643 1.16936 2.45382Z" fill="white"/>
<path d="M1.16936 4.40876L1.23982 4.62007L1.46255 4.6218C1.49137 4.62203 1.50335 4.65882 1.48015 4.67598L1.30098 4.8083L1.36815 5.02067C1.37685 5.04816 1.34557 5.0709 1.32207 5.05413L1.14084 4.92461L0.95962 5.05413C0.936179 5.07093 0.904869 5.04816 0.913535 5.02067L0.980704 4.8083L0.80154 4.67598C0.778365 4.65885 0.790285 4.62203 0.819138 4.6218L1.04186 4.62007L1.11232 4.40876C1.12155 4.3814 1.16027 4.3814 1.16936 4.40876Z" fill="white"/>
<path d="M1.16936 6.20494L1.23982 6.41625L1.46255 6.41797C1.49137 6.4182 1.50335 6.45499 1.48015 6.47213L1.30098 6.60444L1.36815 6.81681C1.37685 6.8443 1.34557 6.86704 1.32207 6.85028L1.14084 6.72075L0.95962 6.85028C0.936179 6.86708 0.904869 6.8443 0.913535 6.81681L0.980704 6.60444L0.80154 6.47213C0.778365 6.45499 0.790285 6.4182 0.819138 6.41797L1.04186 6.41625L1.11232 6.20494C1.12155 6.17758 1.16027 6.17758 1.16936 6.20494Z" fill="white"/>
<path d="M1.16936 7.83943L1.23982 8.05073L1.46255 8.05246C1.49137 8.05269 1.50335 8.08948 1.48015 8.10661L1.30098 8.23893L1.36815 8.4513C1.37685 8.47879 1.34557 8.50153 1.32207 8.48477L1.14084 8.35524L0.95962 8.48477C0.936179 8.50157 0.904869 8.47879 0.913535 8.4513L0.980704 8.23893L0.80154 8.10661C0.778365 8.08948 0.790285 8.05266 0.819138 8.05246L1.04186 8.05073L1.11232 7.83943C1.12155 7.81207 1.16027 7.81207 1.16936 7.83943Z" fill="white"/>
<path d="M2.02727 1.52586L2.09773 1.73716L2.32046 1.73889C2.34928 1.73912 2.36126 1.77591 2.33806 1.79304L2.15889 1.92536L2.22606 2.13772C2.23476 2.16522 2.20348 2.18796 2.17998 2.17119L1.99875 2.04167L1.81753 2.17119C1.79409 2.18799 1.76278 2.16522 1.77144 2.13772L1.83861 1.92536L1.65945 1.79304C1.63627 1.77591 1.64819 1.73912 1.67705 1.73889L1.89977 1.73716L1.97023 1.52586C1.97946 1.4985 2.01818 1.4985 2.02727 1.52586Z" fill="white"/>
<path d="M2.02727 3.48084L2.09773 3.69215L2.32046 3.69387C2.34928 3.6941 2.36126 3.73089 2.33806 3.74803L2.15889 3.88034L2.22606 4.09271C2.23476 4.1202 2.20348 4.14294 2.17998 4.12618L1.99875 3.99665L1.81753 4.12618C1.79409 4.14298 1.76278 4.1202 1.77144 4.09271L1.83861 3.88034L1.65945 3.74803C1.63627 3.73089 1.64819 3.6941 1.67705 3.69387L1.89977 3.69215L1.97023 3.48084C1.97946 3.45348 2.01818 3.45348 2.02727 3.48084Z" fill="white"/>
<path d="M2.02727 5.33814L2.09773 5.54945L2.32046 5.55117C2.34928 5.55141 2.36126 5.58819 2.33806 5.60533L2.15889 5.73764L2.22606 5.95001C2.23476 5.9775 2.20348 6.00025 2.17998 5.98348L1.99875 5.85395L1.81753 5.98348C1.79409 6.00028 1.76278 5.9775 1.77144 5.95001L1.83861 5.73764L1.65945 5.60533C1.63627 5.58819 1.64819 5.55141 1.67705 5.55117L1.89977 5.54945L1.97023 5.33814C1.97946 5.31082 2.01818 5.31082 2.02727 5.33814Z" fill="white"/>
<path d="M2.02727 7.00619L2.09773 7.2175L2.32046 7.21922C2.34928 7.21946 2.36126 7.25625 2.33806 7.27338L2.15889 7.40569L2.22606 7.61806C2.23476 7.64555 2.20348 7.6683 2.17998 7.65153L1.99875 7.522L1.81753 7.65153C1.79409 7.66833 1.76278 7.64555 1.77144 7.61806L1.83861 7.40569L1.65945 7.27338C1.63627 7.25625 1.64819 7.21946 1.67705 7.21922L1.89977 7.2175L1.97023 7.00619C1.97946 6.9788 2.01818 6.9788 2.02727 7.00619Z" fill="white"/>
<path d="M2.88519 0.691174L2.95564 0.902479L3.17837 0.904205C3.20719 0.904438 3.21918 0.941227 3.19597 0.95836L3.0168 1.09067L3.08397 1.30304C3.09267 1.33053 3.06139 1.35328 3.03789 1.33651L2.85666 1.20698L2.67544 1.33651C2.652 1.35331 2.62069 1.33053 2.62936 1.30304L2.69653 1.09067L2.51736 0.95836C2.49418 0.941227 2.5061 0.904438 2.53496 0.904205L2.75769 0.902479L2.82814 0.691174C2.83737 0.663814 2.87605 0.663814 2.88519 0.691174Z" fill="white"/>
<path d="M2.88519 2.45382L2.95564 2.66513L3.17837 2.66685C3.20719 2.66709 3.21918 2.70388 3.19597 2.72101L3.0168 2.85332L3.08397 3.06569C3.09267 3.09318 3.06139 3.11593 3.03789 3.09916L2.85666 2.96963L2.67544 3.09916C2.652 3.11596 2.62069 3.09318 2.62936 3.06569L2.69653 2.85332L2.51736 2.72101C2.49418 2.70388 2.5061 2.66709 2.53496 2.66685L2.75769 2.66513L2.82814 2.45382C2.83737 2.42643 2.87605 2.42643 2.88519 2.45382Z" fill="white"/>
<path d="M2.88519 4.40876L2.95564 4.62007L3.17837 4.6218C3.20719 4.62203 3.21918 4.65882 3.19597 4.67598L3.0168 4.8083L3.08397 5.02067C3.09267 5.04816 3.06139 5.0709 3.03789 5.05413L2.85666 4.92461L2.67544 5.05413C2.652 5.07093 2.62069 5.04816 2.62936 5.02067L2.69653 4.8083L2.51736 4.67598C2.49418 4.65885 2.5061 4.62203 2.53496 4.6218L2.75769 4.62007L2.82814 4.40876C2.83737 4.3814 2.87605 4.3814 2.88519 4.40876Z" fill="white"/>
<path d="M2.88524 6.20494L2.9557 6.41624L3.17842 6.41797C3.20724 6.4182 3.21923 6.45499 3.19602 6.47212L3.01686 6.60444L3.08403 6.8168C3.09273 6.8443 3.06145 6.86704 3.03794 6.85027L2.85679 6.72071L2.67556 6.85024C2.65212 6.86704 2.62081 6.84426 2.62948 6.81677L2.69665 6.6044L2.51748 6.47209C2.49431 6.45496 2.50623 6.41817 2.53508 6.41793L2.75781 6.41621L2.82826 6.2049C2.83743 6.17758 2.87611 6.17758 2.88524 6.20494Z" fill="white"/>
<path d="M2.88519 7.83943L2.95564 8.05073L3.17837 8.05246C3.20719 8.05269 3.21918 8.08948 3.19597 8.10661L3.0168 8.23893L3.08397 8.4513C3.09267 8.47879 3.06139 8.50153 3.03789 8.48477L2.85666 8.35524L2.67544 8.48477C2.652 8.50157 2.62069 8.47879 2.62936 8.4513L2.69653 8.23893L2.51736 8.10661C2.49418 8.08948 2.5061 8.05266 2.53496 8.05246L2.75769 8.05073L2.82814 7.83943C2.83737 7.81207 2.87605 7.81207 2.88519 7.83943Z" fill="white"/>
<path d="M3.74322 1.52586L3.81367 1.73716L4.0364 1.73889C4.06522 1.73912 4.07721 1.77591 4.054 1.79304L3.87483 1.92536L3.942 2.13772C3.9507 2.16522 3.91943 2.18796 3.89592 2.17119L3.7147 2.04167L3.53347 2.17119C3.51003 2.18799 3.47872 2.16522 3.48739 2.13772L3.55456 1.92536L3.37539 1.79304C3.35222 1.77591 3.36414 1.73912 3.39299 1.73889L3.61582 1.73716L3.68627 1.52586C3.6954 1.4985 3.73409 1.4985 3.74322 1.52586Z" fill="white"/>
<path d="M3.74322 3.48084L3.81367 3.69215L4.0364 3.69387C4.06522 3.6941 4.07721 3.73089 4.054 3.74803L3.87483 3.88034L3.942 4.09271C3.9507 4.1202 3.91943 4.14294 3.89592 4.12618L3.7147 3.99665L3.53347 4.12618C3.51003 4.14298 3.47872 4.1202 3.48739 4.09271L3.55456 3.88034L3.37539 3.74803C3.35222 3.73089 3.36414 3.6941 3.39299 3.69387L3.61572 3.69215L3.68617 3.48084C3.6954 3.45348 3.73409 3.45348 3.74322 3.48084Z" fill="white"/>
<path d="M3.74322 5.33814L3.81367 5.54945L4.0364 5.55117C4.06522 5.55141 4.07721 5.58819 4.054 5.60533L3.87483 5.73764L3.942 5.95001C3.9507 5.9775 3.91943 6.00025 3.89592 5.98348L3.7147 5.85395L3.53347 5.98348C3.51003 6.00028 3.47872 5.9775 3.48739 5.95001L3.55456 5.73764L3.37539 5.60533C3.35222 5.58819 3.36414 5.55141 3.39299 5.55117L3.61572 5.54945L3.68617 5.33814C3.6954 5.31082 3.73409 5.31082 3.74322 5.33814Z" fill="white"/>
<path d="M3.74322 7.00619L3.81367 7.2175L4.0364 7.21922C4.06522 7.21946 4.07721 7.25625 4.054 7.27338L3.87483 7.40569L3.942 7.61806C3.9507 7.64555 3.91943 7.6683 3.89592 7.65153L3.7147 7.522L3.53347 7.65153C3.51003 7.66833 3.47872 7.64555 3.48739 7.61806L3.55456 7.40569L3.37539 7.27338C3.35222 7.25625 3.36414 7.21946 3.39299 7.21922L3.61572 7.2175L3.68617 7.00619C3.6954 6.9788 3.73409 6.9788 3.74322 7.00619Z" fill="white"/>
<path d="M4.60113 0.691174L4.67159 0.902479L4.89431 0.904205C4.92313 0.904438 4.93512 0.941227 4.91191 0.95836L4.73275 1.09067L4.79992 1.30304C4.80861 1.33053 4.77734 1.35328 4.75383 1.33651L4.57261 1.20698L4.39138 1.33651C4.36794 1.35331 4.33663 1.33053 4.3453 1.30304L4.41247 1.09067L4.2333 0.95836C4.21013 0.941227 4.22205 0.904438 4.2509 0.904205L4.47363 0.902479L4.54408 0.691174C4.55332 0.663814 4.592 0.663814 4.60113 0.691174Z" fill="white"/>
<path d="M4.60113 2.45382L4.67159 2.66513L4.89431 2.66685C4.92313 2.66709 4.93512 2.70388 4.91191 2.72101L4.73275 2.85332L4.79992 3.06569C4.80861 3.09318 4.77734 3.11593 4.75383 3.09916L4.57261 2.96963L4.39138 3.09916C4.36794 3.11596 4.33663 3.09318 4.3453 3.06569L4.41247 2.85332L4.2333 2.72101C4.21013 2.70388 4.22205 2.66709 4.2509 2.66685L4.47363 2.66513L4.54408 2.45382C4.55332 2.42643 4.592 2.42643 4.60113 2.45382Z" fill="white"/>
<path d="M4.60113 4.40876L4.67159 4.62007L4.89431 4.6218C4.92313 4.62203 4.93512 4.65882 4.91191 4.67598L4.73275 4.8083L4.79992 5.02067C4.80861 5.04816 4.77734 5.0709 4.75383 5.05413L4.57261 4.92461L4.39138 5.05413C4.36794 5.07093 4.33663 5.04816 4.3453 5.02067L4.41247 4.8083L4.2333 4.67598C4.21013 4.65885 4.22205 4.62203 4.2509 4.6218L4.47363 4.62007L4.54408 4.40876C4.55332 4.3814 4.592 4.3814 4.60113 4.40876Z" fill="white"/>
<path d="M4.60113 6.20494L4.67159 6.41625L4.89431 6.41797C4.92313 6.4182 4.93512 6.45499 4.91191 6.47213L4.73275 6.60444L4.79992 6.81681C4.80861 6.8443 4.77734 6.86704 4.75383 6.85028L4.57261 6.72075L4.39138 6.85028C4.36794 6.86708 4.33663 6.8443 4.3453 6.81681L4.41247 6.60444L4.2333 6.47213C4.21013 6.45499 4.22205 6.4182 4.2509 6.41797L4.47363 6.41625L4.54408 6.20494C4.55332 6.17758 4.592 6.17758 4.60113 6.20494Z" fill="white"/>
<path d="M4.60113 7.83943L4.67159 8.05073L4.89431 8.05246C4.92313 8.05269 4.93512 8.08948 4.91191 8.10661L4.73275 8.23893L4.79992 8.4513C4.80861 8.47879 4.77734 8.50153 4.75383 8.48477L4.57261 8.35524L4.39138 8.48477C4.36794 8.50157 4.33663 8.47879 4.3453 8.4513L4.41247 8.23893L4.2333 8.10661C4.21013 8.08948 4.22205 8.05266 4.2509 8.05246L4.47363 8.05073L4.54408 7.83943C4.55332 7.81207 4.592 7.81207 4.60113 7.83943Z" fill="white"/>
<path d="M5.45904 1.52586L5.52949 1.73716L5.75222 1.73889C5.78104 1.73912 5.79303 1.77591 5.76982 1.79304L5.59065 1.92536L5.65782 2.13772C5.66652 2.16522 5.63525 2.18796 5.61174 2.17119L5.43052 2.04167L5.24929 2.17119C5.22585 2.18799 5.19454 2.16522 5.20321 2.13772L5.27038 1.92536L5.09121 1.79304C5.06804 1.77591 5.07996 1.73912 5.10878 1.73889L5.33151 1.73716L5.40196 1.52586C5.41123 1.4985 5.44991 1.4985 5.45904 1.52586Z" fill="white"/>
<path d="M5.45904 3.48084L5.52949 3.69215L5.75222 3.69387C5.78104 3.6941 5.79303 3.73089 5.76982 3.74803L5.59065 3.88034L5.65782 4.09271C5.66652 4.1202 5.63525 4.14294 5.61174 4.12618L5.43052 3.99665L5.24929 4.12618C5.22585 4.14298 5.19454 4.1202 5.20321 4.09271L5.27038 3.88034L5.09121 3.74803C5.06804 3.73089 5.07996 3.6941 5.10878 3.69387L5.33151 3.69215L5.40196 3.48084C5.41123 3.45348 5.44991 3.45348 5.45904 3.48084Z" fill="white"/>
<path d="M5.45904 5.33814L5.52949 5.54945L5.75222 5.55117C5.78104 5.55141 5.79303 5.58819 5.76982 5.60533L5.59065 5.73764L5.65782 5.95001C5.66652 5.9775 5.63525 6.00025 5.61174 5.98348L5.43052 5.85395L5.24929 5.98348C5.22585 6.00028 5.19454 5.9775 5.20321 5.95001L5.27038 5.73764L5.09121 5.60533C5.06804 5.58819 5.07996 5.55141 5.10878 5.55117L5.33151 5.54945L5.40196 5.33814C5.41123 5.31082 5.44991 5.31082 5.45904 5.33814Z" fill="white"/>
<path d="M5.45904 7.00619L5.52949 7.2175L5.75222 7.21922C5.78104 7.21946 5.79303 7.25625 5.76982 7.27338L5.59065 7.40569L5.65782 7.61806C5.66652 7.64555 5.63525 7.6683 5.61174 7.65153L5.43052 7.522L5.24929 7.65153C5.22585 7.66833 5.19454 7.64555 5.20321 7.61806L5.27038 7.40569L5.09121 7.27338C5.06804 7.25625 5.07996 7.21946 5.10878 7.21922L5.33151 7.2175L5.40196 7.00619C5.41123 6.9788 5.44991 6.9788 5.45904 7.00619Z" fill="white"/>
<path d="M6.31707 0.691174L6.38753 0.902479L6.61025 0.904205C6.63907 0.904438 6.65106 0.941227 6.62785 0.95836L6.44869 1.09067L6.51586 1.30304C6.52456 1.33053 6.49328 1.35328 6.46977 1.33651L6.28855 1.20698L6.10733 1.33651C6.08388 1.35331 6.05257 1.33053 6.06124 1.30304L6.12841 1.09067L5.94925 0.95836C5.92607 0.941227 5.93799 0.904438 5.96684 0.904205L6.18957 0.902479L6.26003 0.691174C6.26926 0.663814 6.30794 0.663814 6.31707 0.691174Z" fill="white"/>
<path d="M6.31707 2.45382L6.38753 2.66513L6.61025 2.66685C6.63907 2.66709 6.65106 2.70388 6.62785 2.72101L6.44869 2.85332L6.51586 3.06569C6.52456 3.09318 6.49328 3.11593 6.46977 3.09916L6.28855 2.96963L6.10733 3.09916C6.08388 3.11596 6.05257 3.09318 6.06124 3.06569L6.12841 2.85332L5.94925 2.72101C5.92607 2.70388 5.93799 2.66709 5.96684 2.66685L6.18957 2.66513L6.26003 2.45382C6.26926 2.42643 6.30794 2.42643 6.31707 2.45382Z" fill="white"/>
<path d="M6.31707 4.40876L6.38753 4.62007L6.61025 4.6218C6.63907 4.62203 6.65106 4.65882 6.62785 4.67598L6.44869 4.8083L6.51586 5.02067C6.52456 5.04816 6.49328 5.0709 6.46977 5.05413L6.28855 4.92461L6.10733 5.05413C6.08388 5.07093 6.05257 5.04816 6.06124 5.02067L6.12841 4.8083L5.94925 4.67598C5.92607 4.65885 5.93799 4.62203 5.96684 4.6218L6.18957 4.62007L6.26003 4.40876C6.26926 4.3814 6.30794 4.3814 6.31707 4.40876Z" fill="white"/>
<path d="M6.31707 6.20494L6.38753 6.41625L6.61025 6.41797C6.63907 6.4182 6.65106 6.45499 6.62785 6.47213L6.44869 6.60444L6.51586 6.81681C6.52456 6.8443 6.49328 6.86704 6.46977 6.85028L6.28855 6.72075L6.10733 6.85028C6.08388 6.86708 6.05257 6.8443 6.06124 6.81681L6.12841 6.60444L5.94925 6.47213C5.92607 6.45499 5.93799 6.4182 5.96684 6.41797L6.18957 6.41625L6.26003 6.20494C6.26926 6.17758 6.30794 6.17758 6.31707 6.20494Z" fill="white"/>
<path d="M6.31707 7.83943L6.38753 8.05073L6.61025 8.05246C6.63907 8.05269 6.65106 8.08948 6.62785 8.10661L6.44869 8.23893L6.51586 8.4513C6.52456 8.47879 6.49328 8.50153 6.46977 8.48477L6.28855 8.35524L6.10733 8.48477C6.08388 8.50157 6.05257 8.47879 6.06124 8.4513L6.12841 8.23893L5.94925 8.10661C5.92607 8.08948 5.93799 8.05266 5.96684 8.05246L6.18957 8.05073L6.26003 7.83943C6.26926 7.81207 6.30794 7.81207 6.31707 7.83943Z" fill="white"/>
<path d="M7.17498 1.52586L7.24544 1.73716L7.46816 1.73889C7.49698 1.73912 7.50897 1.77591 7.48576 1.79304L7.3066 1.92536L7.37377 2.13772C7.38247 2.16522 7.35119 2.18796 7.32768 2.17119L7.14646 2.04167L6.96524 2.17119C6.94179 2.18799 6.91048 2.16522 6.91915 2.13772L6.98632 1.92536L6.80716 1.79304C6.78398 1.77591 6.7959 1.73912 6.82475 1.73889L7.04748 1.73716L7.11794 1.52586C7.12713 1.4985 7.16585 1.4985 7.17498 1.52586Z" fill="white"/>
<path d="M7.17498 3.48084L7.24544 3.69215L7.46816 3.69387C7.49698 3.6941 7.50897 3.73089 7.48576 3.74803L7.3066 3.88034L7.37377 4.09271C7.38247 4.1202 7.35119 4.14294 7.32768 4.12618L7.14646 3.99665L6.96524 4.12618C6.94179 4.14298 6.91048 4.1202 6.91915 4.09271L6.98632 3.88034L6.80716 3.74803C6.78398 3.73089 6.7959 3.6941 6.82475 3.69387L7.04748 3.69215L7.11794 3.48084C7.12713 3.45348 7.16585 3.45348 7.17498 3.48084Z" fill="white"/>
<path d="M7.17498 5.33814L7.24544 5.54945L7.46816 5.55117C7.49698 5.55141 7.50897 5.58819 7.48576 5.60533L7.3066 5.73764L7.37377 5.95001C7.38247 5.9775 7.35119 6.00025 7.32768 5.98348L7.14646 5.85395L6.96524 5.98348C6.94179 6.00028 6.91048 5.9775 6.91915 5.95001L6.98632 5.73764L6.80716 5.60533C6.78398 5.58819 6.7959 5.55141 6.82475 5.55117L7.04748 5.54945L7.11794 5.33814C7.12713 5.31082 7.16585 5.31082 7.17498 5.33814Z" fill="white"/>
<path d="M7.17498 7.00619L7.24544 7.2175L7.46816 7.21922C7.49698 7.21946 7.50897 7.25625 7.48576 7.27338L7.3066 7.40569L7.37377 7.61806C7.38247 7.64555 7.35119 7.6683 7.32768 7.65153L7.14646 7.522L6.96524 7.65153C6.94179 7.66833 6.91048 7.64555 6.91915 7.61806L6.98632 7.40569L6.80716 7.27338C6.78398 7.25625 6.7959 7.21946 6.82475 7.21922L7.04748 7.2175L7.11794 7.00619C7.12713 6.9788 7.16585 6.9788 7.17498 7.00619Z" fill="white"/>
<path d="M8.03289 0.691174L8.10335 0.902479L8.32607 0.904205C8.35489 0.904438 8.36688 0.941227 8.34367 0.95836L8.16451 1.09067L8.23168 1.30304C8.24038 1.33053 8.2091 1.35328 8.18559 1.33651L8.00437 1.20698L7.82315 1.33651C7.7997 1.35331 7.76839 1.33053 7.77706 1.30304L7.84423 1.09067L7.66507 0.95836C7.64189 0.941227 7.65381 0.904438 7.68266 0.904205L7.90539 0.902479L7.97585 0.691174C7.98504 0.663814 8.02376 0.663814 8.03289 0.691174Z" fill="white"/>
<path d="M8.03289 2.45382L8.10335 2.66513L8.32607 2.66685C8.35489 2.66709 8.36688 2.70388 8.34367 2.72101L8.16451 2.85332L8.23168 3.06569C8.24038 3.09318 8.2091 3.11593 8.18559 3.09916L8.00437 2.96963L7.82315 3.09916C7.7997 3.11596 7.76839 3.09318 7.77706 3.06569L7.84423 2.85332L7.66507 2.72101C7.64189 2.70388 7.65381 2.66709 7.68266 2.66685L7.90539 2.66513L7.97585 2.45382C7.98504 2.42643 8.02376 2.42643 8.03289 2.45382Z" fill="white"/>
<path d="M8.03289 4.40876L8.10335 4.62007L8.32607 4.6218C8.35489 4.62203 8.36688 4.65882 8.34367 4.67598L8.16451 4.8083L8.23168 5.02067C8.24038 5.04816 8.2091 5.0709 8.18559 5.05413L8.00437 4.92461L7.82315 5.05413C7.7997 5.07093 7.76839 5.04816 7.77706 5.02067L7.84423 4.8083L7.66507 4.67598C7.64189 4.65885 7.65381 4.62203 7.68266 4.6218L7.90539 4.62007L7.97585 4.40876C7.98504 4.3814 8.02376 4.3814 8.03289 4.40876Z" fill="white"/>
<path d="M8.03289 6.20494L8.10335 6.41625L8.32607 6.41797C8.35489 6.4182 8.36688 6.45499 8.34367 6.47213L8.16451 6.60444L8.23168 6.81681C8.24038 6.8443 8.2091 6.86704 8.18559 6.85028L8.00437 6.72075L7.82315 6.85028C7.7997 6.86708 7.76839 6.8443 7.77706 6.81681L7.84423 6.60444L7.66507 6.47213C7.64189 6.45499 7.65381 6.4182 7.68266 6.41797L7.90539 6.41625L7.97585 6.20494C7.98504 6.17758 8.02376 6.17758 8.03289 6.20494Z" fill="white"/>
<path d="M8.03289 7.83943L8.10335 8.05073L8.32607 8.05246C8.35489 8.05269 8.36688 8.08948 8.34367 8.10661L8.16451 8.23893L8.23168 8.4513C8.24038 8.47879 8.2091 8.50153 8.18559 8.48477L8.00437 8.35524L7.82315 8.48477C7.7997 8.50157 7.76839 8.47879 7.77706 8.4513L7.84423 8.23893L7.66507 8.10661C7.64189 8.08948 7.65381 8.05266 7.68266 8.05246L7.90539 8.05073L7.97585 7.83943C7.98504 7.81207 8.02376 7.81207 8.03289 7.83943Z" fill="white"/>
</svg>
