<svg width="17" height="17" viewBox="0 0 17 17" fill="none" xmlns="http://www.w3.org/2000/svg">
<g clip-path="url(#clip0_325_592)">
<path d="M14.3874 10.9024C14.4636 10.7245 14.6379 10.609 14.8288 10.6083H14.8927C16.0546 10.6083 17 9.66293 17 8.50096C17 7.33902 16.0546 6.39367 14.8927 6.39367H14.7747C14.6109 6.39301 14.4609 6.31026 14.3725 6.17705C14.3627 6.12868 14.3477 6.08136 14.3277 6.03594C14.2475 5.85432 14.2848 5.64538 14.4227 5.50277L14.4603 5.46512C14.4614 5.46412 14.4624 5.46309 14.4634 5.46206C14.8612 5.06383 15.0801 4.5345 15.0797 3.97162C15.0794 3.40969 14.8606 2.88146 14.4637 2.48389C14.4626 2.48283 14.4616 2.4818 14.4606 2.48074C14.0626 2.0832 13.5338 1.86436 12.9713 1.86436C12.971 1.86436 12.9705 1.86436 12.9701 1.86436C12.4072 1.86466 11.8781 2.08416 11.4806 2.48213L11.4413 2.52151C11.2987 2.65934 11.0898 2.69666 10.9081 2.6165C10.9059 2.61554 10.9036 2.61455 10.9014 2.61358C10.7235 2.53735 10.608 2.363 10.6073 2.17222V2.10827C10.6073 0.94633 9.66192 0.000976562 8.49995 0.000976562C7.33798 0.000976562 6.39266 0.94633 6.39266 2.10827V2.2263C6.392 2.39006 6.30925 2.54004 6.17604 2.62849C6.12767 2.63829 6.08035 2.65329 6.03493 2.67331C5.85334 2.7535 5.64437 2.71618 5.50176 2.57832L5.46105 2.53758C5.06305 2.14004 4.53429 1.9212 3.97183 1.9212C3.97144 1.9212 3.97097 1.9212 3.97061 1.9212C3.40772 1.9215 2.87863 2.14101 2.47973 2.54037C2.08192 2.93857 1.86302 3.46789 1.86335 4.03078C1.86365 4.59367 2.08315 5.12273 2.48112 5.52023L2.52047 5.55958C2.65833 5.70219 2.69565 5.9111 2.61549 6.09275C2.60962 6.106 2.60424 6.11941 2.59923 6.13299C2.53069 6.31926 2.35933 6.44331 2.16148 6.45045H2.10726C0.945354 6.45045 0 7.3958 0 8.55774C0 9.71974 0.945354 10.6651 2.10736 10.665H2.22536C2.41893 10.6658 2.59322 10.7812 2.66945 10.9591C2.67041 10.9614 2.67141 10.9636 2.67237 10.9658C2.75256 11.1475 2.71524 11.3564 2.57734 11.4991L2.538 11.5384C2.5371 11.5393 2.53621 11.5402 2.53528 11.5412C2.13834 11.9392 1.91993 12.468 1.92023 13.0302C1.92052 13.5931 2.14003 14.1222 2.53826 14.52C2.53923 14.521 2.54022 14.5219 2.54122 14.5229C3.36346 15.3423 4.69895 15.341 5.51926 14.5197L5.55864 14.4803C5.70121 14.3425 5.91015 14.3051 6.09177 14.3853C6.10499 14.3911 6.1184 14.3965 6.13198 14.4016C6.31829 14.4701 6.4423 14.6415 6.44947 14.8393V14.8935C6.44947 16.0555 7.39482 17.0008 8.55676 17.0008C9.71876 17.0008 10.6641 16.0555 10.6641 14.8936V14.7756C10.6649 14.582 10.7803 14.4077 10.9582 14.3315C10.9605 14.3305 10.9627 14.3295 10.9649 14.3286C11.1466 14.2484 11.3555 14.2857 11.4981 14.4236L11.5389 14.4643C11.9369 14.8618 12.4656 15.0807 13.0281 15.0807C13.0285 15.0807 13.0289 15.0807 13.0293 15.0807C13.5922 15.0803 14.1213 14.8608 14.5202 14.4615C15.3413 13.6394 15.3406 12.3025 14.5188 11.4816L14.4795 11.4422C14.3416 11.2996 14.3043 11.0907 14.3845 10.909C14.3855 10.9068 14.3864 10.9046 14.3874 10.9024ZM13.4996 12.4048C13.5014 12.4066 13.5032 12.4084 13.505 12.4102L13.5478 12.453C13.8341 12.739 13.8344 13.2046 13.5473 13.492C13.4087 13.6307 13.2245 13.7072 13.0284 13.7073C13.0283 13.7073 13.0282 13.7073 13.028 13.7073C12.8321 13.7073 12.6479 13.631 12.5085 13.4918L12.4659 13.4492C12.4641 13.4474 12.4623 13.4456 12.4605 13.4438C11.915 12.9102 11.1119 12.764 10.4135 13.0707C9.73417 13.3635 9.29357 14.0301 9.29058 14.7729V14.8936C9.29058 15.2983 8.96137 15.6275 8.55669 15.6275C8.15205 15.6275 7.82284 15.2982 7.82284 14.8936V14.8297C7.82284 14.8243 7.82278 14.819 7.82264 14.8136C7.80485 14.0528 7.33609 13.3905 6.62641 13.1203C5.93194 12.8231 5.13719 12.9713 4.59605 13.5006C4.59426 13.5024 4.59246 13.5042 4.59067 13.5059L4.54777 13.5488C4.26183 13.8351 3.79622 13.8354 3.50992 13.5494C3.50908 13.5486 3.50822 13.5478 3.50742 13.547C3.3696 13.4086 3.2937 13.2249 3.29356 13.0295C3.29343 12.8335 3.3697 12.6492 3.50822 12.5105C3.50902 12.5097 3.50978 12.5089 3.51058 12.5082L3.55168 12.467C3.55348 12.4652 3.55527 12.4634 3.55703 12.4616C4.09057 11.9162 4.23683 11.1131 3.9302 10.4147C3.63741 9.73531 2.97073 9.29468 2.22798 9.29169H2.10722C1.70258 9.29169 1.37337 8.96245 1.37337 8.5578C1.37337 8.15316 1.70261 7.82395 2.10722 7.82392H2.17117C2.17652 7.82392 2.1819 7.82385 2.18724 7.82372C2.94809 7.80592 3.61042 7.33716 3.88063 6.62748C4.17773 5.93301 4.02957 5.13833 3.50025 4.59719C3.49849 4.5954 3.4967 4.59361 3.49491 4.59181L3.45204 4.54891C3.31335 4.41036 3.23692 4.22612 3.23682 4.03009C3.23669 3.83409 3.31296 3.64975 3.45261 3.50993C3.59116 3.37124 3.77541 3.29481 3.97144 3.29471C3.9716 3.29471 3.9717 3.29471 3.97187 3.29471C4.16776 3.29471 4.35194 3.37094 4.49136 3.51023L4.53399 3.55283C4.53575 3.55462 4.53758 3.55641 4.53937 3.55817C5.05126 4.05887 5.79003 4.21851 6.45631 3.98281C6.51926 3.97474 6.58099 3.95797 6.63962 3.93283C7.32098 3.64081 7.76318 2.97314 7.76613 2.22913V2.10837C7.76613 1.70372 8.09534 1.37452 8.49998 1.37452C8.90463 1.37452 9.23387 1.70376 9.23387 2.1084V2.17507C9.23679 2.91507 9.67746 3.58175 10.3568 3.87456C11.0553 4.18129 11.8583 4.03493 12.4038 3.5014C12.4056 3.49964 12.4074 3.49784 12.4092 3.49605L12.4521 3.45318C12.5906 3.3145 12.7749 3.23806 12.9709 3.23796C12.9711 3.23796 12.9712 3.23796 12.9713 3.23796C13.1666 3.23796 13.3503 3.31373 13.4887 3.45139C13.4895 3.45219 13.4903 3.45295 13.491 3.45375C13.6298 3.59231 13.7062 3.77655 13.7063 3.97258C13.7064 4.16808 13.6306 4.35189 13.4928 4.49044C13.4922 4.49111 13.4915 4.49177 13.4908 4.49247L13.4482 4.5351C13.4464 4.53686 13.4446 4.53865 13.4428 4.54048C12.9421 5.05237 12.7825 5.79117 13.0182 6.45742C13.0263 6.52041 13.0431 6.58213 13.0682 6.64077C13.3602 7.32212 14.0279 7.76432 14.7719 7.76727H14.8926C15.2973 7.76727 15.6265 8.09648 15.6265 8.50113C15.6265 8.90577 15.2973 9.23501 14.8926 9.23501H14.826C14.086 9.23793 13.4194 9.6786 13.1265 10.3579C12.8198 11.0562 12.9661 11.8593 13.4996 12.4048Z" fill="#959CB6"/>
<path d="M8.50035 5.68262C6.94674 5.68262 5.68274 6.94659 5.68274 8.50022C5.68274 10.0539 6.94671 11.3178 8.50035 11.3178C10.054 11.3178 11.318 10.0539 11.318 8.50022C11.318 6.94659 10.0539 5.68262 8.50035 5.68262ZM8.50035 9.94435C7.70404 9.94435 7.05618 9.29652 7.05618 8.50019C7.05618 7.70388 7.70404 7.05602 8.50035 7.05602C9.29669 7.05602 9.94451 7.70388 9.94451 8.50019C9.94451 9.29649 9.29669 9.94435 8.50035 9.94435Z" fill="#959CB6"/>
</g>
<defs>
<clipPath id="clip0_325_592">
<rect width="17" height="17" fill="white"/>
</clipPath>
</defs>
</svg>
