<svg width="30" height="29" viewBox="0 0 30 29" fill="none" xmlns="http://www.w3.org/2000/svg">
<path fill-rule="evenodd" clip-rule="evenodd" d="M27.6018 22.1005C27.9174 22.4161 28.457 22.1914 28.4554 21.7451L28.4343 15.8355V6.67763C28.4343 4.99171 27.0676 3.625 25.3817 3.625H11.1361C9.45016 3.625 8.08345 4.99171 8.08345 6.67763V10.875H16.9712C18.6281 10.875 19.9712 12.2181 19.9712 13.875V18.8882H24.3895L27.6018 22.1005Z" fill="#FFA800"/>
<path opacity="0.3" fill-rule="evenodd" clip-rule="evenodd" d="M3.03652 21.75V15.7084C3.03652 14.3737 4.1185 13.2917 5.45319 13.2917H15.1199C16.4545 13.2917 17.5365 14.3737 17.5365 15.7084V21.75C17.5365 23.0847 16.4545 24.1667 15.1199 24.1667H5.59303L3.91385 25.7739C3.59584 26.0783 3.06812 25.8529 3.06812 25.4127V22.1418C3.04733 22.0143 3.03652 21.8834 3.03652 21.75ZM7.88788 17.4167C7.88788 17.1405 8.11174 16.9167 8.38788 16.9167H14.6379C14.914 16.9167 15.1379 17.1405 15.1379 17.4167V17.625C15.1379 17.9012 14.914 18.125 14.6379 18.125H8.38788C8.11174 18.125 7.88788 17.9012 7.88788 17.625V17.4167ZM12.0129 19.3333C11.7367 19.3333 11.5129 19.5572 11.5129 19.8333V20.0417C11.5129 20.3178 11.7367 20.5417 12.0129 20.5417H14.6379C14.914 20.5417 15.1379 20.3178 15.1379 20.0417V19.8333C15.1379 19.5572 14.914 19.3333 14.6379 19.3333H12.0129Z" fill="#FFA800"/>
</svg>
