<svg width="17" height="17" viewBox="0 0 17 17" fill="none" xmlns="http://www.w3.org/2000/svg">
<path d="M16.2762 0.0522461H13.9704C13.645 0.0522461 13.3576 0.232276 13.2849 0.557715L10.7991 9.67001H3.45596L1.69028 4.30373H9.50774C9.90242 4.30373 10.2279 3.97829 10.2279 3.58361C10.2279 3.18892 9.90242 2.86349 9.50774 2.86349H0.717428C0.1808 2.86349 -0.0996317 3.38973 0.0319287 3.79826L2.26499 10.6082C2.37232 10.8956 2.65967 11.0756 2.95049 11.0756H11.308C11.6335 11.0756 11.9208 10.861 12.0282 10.6082L14.514 1.49595H16.2796C16.6743 1.49595 16.9998 1.17051 16.9998 0.775829C16.9998 0.381147 16.6743 0.0522461 16.2762 0.0522461Z" fill="#959CB6"/>
<path d="M9.8296 12.1211C8.49668 12.1211 7.4165 13.2013 7.4165 14.5342C7.4165 15.8671 8.49668 16.9473 9.8296 16.9473C11.1971 16.9473 12.2427 15.8671 12.2427 14.5342C12.2427 13.2013 11.1625 12.1211 9.8296 12.1211ZM9.8296 15.5036C9.28951 15.5036 8.82212 15.0362 8.82212 14.4961C8.82212 13.956 9.25489 13.4886 9.8296 13.4886C10.4043 13.4886 10.8371 13.956 10.8371 14.4961C10.8371 15.0362 10.4043 15.5036 9.8296 15.5036Z" fill="#959CB6"/>
<path d="M4.39051 12.1211C3.0576 12.1211 1.97742 13.2013 1.97742 14.5342C1.97742 15.8671 3.0576 16.9473 4.39051 16.9473C5.72343 16.9473 6.80361 15.8671 6.80361 14.5342C6.80361 13.2013 5.72343 12.1211 4.39051 12.1211ZM4.39051 15.5036C3.85042 15.5036 3.38304 15.0362 3.38304 14.4961C3.38304 13.956 3.8158 13.4886 4.39051 13.4886C4.9306 13.4886 5.39799 13.956 5.39799 14.4961C5.39799 15.0362 4.96522 15.5036 4.39051 15.5036Z" fill="#959CB6"/>
</svg>
